<?xml version="1.0" encoding="utf-8"?>
<!-- Generator: Adobe Illustrator 28.1.0, SVG Export Plug-In . SVG Version: 6.00 Build 0)  -->
<svg version="1.1" id="Layer_1" xmlns="http://www.w3.org/2000/svg" xmlns:xlink="http://www.w3.org/1999/xlink" x="0px" y="0px"
	 viewBox="0 0 111 32" style="enable-background:new 0 0 111 32;" xml:space="preserve">
<style type="text/css">
	.st0{clip-path:url(#SVGID_00000114793082186273819520000009761089508155912877_);}
	.st1{opacity:0.27;clip-path:url(#SVGID_00000015314405664842175760000007154949701795842223_);}
	.st2{clip-path:url(#SVGID_00000176750921745127904890000009409544261678855871_);}
	.st3{clip-path:url(#SVGID_00000015314405664842175760000007154949701795842223_);fill:#FFFFFF;}
	
		.st4{clip-path:url(#SVGID_00000070821010837270172880000001570465737869026489_);fill:url(#SVGID_00000006680596070735183720000012318403824871889588_);}
	
		.st5{clip-path:url(#SVGID_00000165215324636034139450000009356151451413077928_);fill:url(#SVGID_00000038401529262244669600000006065610671336081574_);}
	
		.st6{clip-path:url(#SVGID_00000026878578176313904730000010392778470270584999_);fill:url(#SVGID_00000080200986902377750570000004645059671965055369_);}
	
		.st7{clip-path:url(#SVGID_00000019675869606140127390000008240130005152602033_);fill:url(#SVGID_00000023273545167322042330000006602050820474784187_);}
	
		.st8{clip-path:url(#SVGID_00000082366864410558235000000005697472553856239780_);fill:url(#SVGID_00000030453321959021011150000015041105886634937782_);}
	
		.st9{clip-path:url(#SVGID_00000089565217863509442410000002013724872631446447_);fill:url(#SVGID_00000142888321515518934710000016730545110785481618_);}
	
		.st10{clip-path:url(#SVGID_00000153663114361645117470000002129230859388942727_);fill:url(#SVGID_00000131344713894555828630000008864961498200670089_);}
	
		.st11{clip-path:url(#SVGID_00000026868076362167545770000009624948944380035220_);fill:url(#SVGID_00000073000563984058450860000010646247822409414839_);}
	
		.st12{clip-path:url(#SVGID_00000159455936106174336060000015035178247837695927_);fill:url(#SVGID_00000018218859925196979210000004269912245790632093_);}
	.st13{fill:#4CBDD7;}
	
		.st14{clip-path:url(#SVGID_00000068634871343387721480000006422533367156459410_);fill:url(#SVGID_00000119084926806835255160000008600644970185232264_);}
	
		.st15{clip-path:url(#SVGID_00000065774106224819698060000011475143022490683554_);fill:url(#SVGID_00000073691400872789549690000014959803183739502989_);}
	.st16{fill:#085FCD;}
	.st17{fill:#30E393;}
	
		.st18{clip-path:url(#SVGID_00000141450562275421617500000008927988818500257167_);fill:url(#SVGID_00000062194666722543856510000002974299445846969227_);}
</style>
<g>
	<g>
		<defs>
			<path id="SVGID_1_" d="M1.1,16L1.1,16C1.1,16,1.1,16,1.1,16L1.1,16c0.4,12.5,15.5,17.6,23.2,9.1c0.8-0.8,1-1.7,1-2.5
				c0-0.2,0-0.7-0.3-0.9c-1.5-1.5-2.8-3.2-4.7-1.7c-4,5-12.5,2.6-12.6-4c0.1-6.6,8.6-9,12.6-4c1.9,1.4,3.2-0.2,4.7-1.7
				c0.3-0.3,0.3-0.7,0.3-0.9c0-0.8-0.2-1.7-1-2.5c-2.6-2.9-6.1-4.2-9.5-4.2C8.1,2.7,1.4,7.7,1.1,16"/>
		</defs>
		<clipPath id="SVGID_00000052824435418167164550000011197040466260272008_">
			<use xlink:href="#SVGID_1_"  style="overflow:visible;"/>
		</clipPath>
		<g style="clip-path:url(#SVGID_00000052824435418167164550000011197040466260272008_);">
			<g>
				<defs>
					<rect id="SVGID_00000143617299982716174830000013017053116250178468_" x="1.1" y="2.7" width="24.3" height="30.9"/>
				</defs>
				<clipPath id="SVGID_00000177485335720994756050000008906562167251388544_">
					<use xlink:href="#SVGID_00000143617299982716174830000013017053116250178468_"  style="overflow:visible;"/>
				</clipPath>
				<g style="clip-path:url(#SVGID_00000177485335720994756050000008906562167251388544_);">
					
						<image style="overflow:visible;" width="51" height="66" xlink:href="8F75A2AC.jpg"  transform="matrix(0.48 0 0 0.48 0.9786 2.3192)">
					</image>
				</g>
			</g>
		</g>
	</g>
	<g>
		<defs>
			<path id="SVGID_00000080201861964009657770000017915792993727260816_" d="M1.1,16L1.1,16C1.1,16,1.1,16,1.1,16L1.1,16
				c0.4,12.5,15.5,17.6,23.2,9.1c0.8-0.8,1-1.7,1-2.5c0-0.2,0-0.7-0.3-0.9c-1.5-1.5-2.8-3.2-4.7-1.7c-4,5-12.5,2.6-12.6-4
				c0.1-6.6,8.6-9,12.6-4c1.9,1.4,3.2-0.2,4.7-1.7c0.3-0.3,0.3-0.7,0.3-0.9c0-0.8-0.2-1.7-1-2.5c-2.6-2.9-6.1-4.2-9.5-4.2
				C8.1,2.7,1.4,7.7,1.1,16"/>
		</defs>
		<clipPath id="SVGID_00000074426187876874656900000002067972589135349429_">
			<use xlink:href="#SVGID_00000080201861964009657770000017915792993727260816_"  style="overflow:visible;"/>
		</clipPath>
		<g style="opacity:0.27;clip-path:url(#SVGID_00000074426187876874656900000002067972589135349429_);">
			<g>
				<defs>
					<rect id="SVGID_00000157305384324471867690000001850593063518205338_" x="1.9" y="4.5" width="23.7" height="23.7"/>
				</defs>
				<clipPath id="SVGID_00000175303003280726704000000016984885528610416786_">
					<use xlink:href="#SVGID_00000157305384324471867690000001850593063518205338_"  style="overflow:visible;"/>
				</clipPath>
				<g style="clip-path:url(#SVGID_00000175303003280726704000000016984885528610416786_);">
					<defs>
						<rect id="SVGID_00000095313765896698805820000017673908461539498658_" x="1.9" y="4.5" width="23.7" height="23.7"/>
					</defs>
					<clipPath id="SVGID_00000097476476730783074840000015923606370942022567_">
						<use xlink:href="#SVGID_00000095313765896698805820000017673908461539498658_"  style="overflow:visible;"/>
					</clipPath>
					<g style="clip-path:url(#SVGID_00000097476476730783074840000015923606370942022567_);">
						
							<image style="overflow:visible;" width="119" height="119" xlink:href="8F75A2AC.png"  transform="matrix(0.1994 0 0 0.1994 1.8571 4.5176)">
						</image>
					</g>
				</g>
			</g>
		</g>
		<path style="clip-path:url(#SVGID_00000074426187876874656900000002067972589135349429_);fill:#FFFFFF;" d="M24.4,16.3
			c0,5.4-4.4,9.8-9.8,9.8c-5.4,0-9.8-4.4-9.8-9.8c0-5.4,4.4-9.8,9.8-9.8C20,6.5,24.4,10.9,24.4,16.3"/>
	</g>
	<g>
		<defs>
			<path id="SVGID_00000149369565654859557930000006861013010415975607_" d="M11.9,11.7c-5.3,3.5-1.1,11.6,4.8,9.1
				c1.1-0.5,2.3-1.7,3.3-2.7c0.1-0.2,0.7-0.7,0.7-1c0-0.5-0.6-0.7-0.9-0.3c-0.2,0.2-0.5,0.5-0.7,0.8c-0.9,0.8-1.7,1.8-2.8,2.3
				c-1.7,0.8-3.8,0.2-4.9-1.3c-1.6-2.2-0.5-5.7,2.1-6.4c2.4-0.8,4.3,1.2,5.8,2.8c0,0,0.4,0.4,0.4,0.4c0.3,0.4,0.9,0.1,0.9-0.3
				c0.1-0.3-0.5-0.7-0.7-1c-1.6-1.8-3.4-3.2-5.4-3.2C13.8,10.9,12.9,11.2,11.9,11.7"/>
		</defs>
		<clipPath id="SVGID_00000006691519983853451030000001026264542089177014_">
			<use xlink:href="#SVGID_00000149369565654859557930000006861013010415975607_"  style="overflow:visible;"/>
		</clipPath>
		
			<linearGradient id="SVGID_00000100346449864225356090000013501401108238400657_" gradientUnits="userSpaceOnUse" x1="-2642.481" y1="908.9431" x2="-2642.2815" y2="908.9431" gradientTransform="matrix(39.4669 39.9715 39.9715 -39.4669 67969.7969 141511.7656)">
			<stop  offset="0" style="stop-color:#085FCD"/>
			<stop  offset="0.7626" style="stop-color:#30E393"/>
			<stop  offset="1" style="stop-color:#4CBDD7"/>
		</linearGradient>
		
			<polygon style="clip-path:url(#SVGID_00000006691519983853451030000001026264542089177014_);fill:url(#SVGID_00000100346449864225356090000013501401108238400657_);" points="
			13.8,3.9 26.9,17.2 13.6,30.4 0.4,17 		"/>
	</g>
	<g>
		<defs>
			<path id="SVGID_00000068673978981585378950000007769335615927171769_" d="M12.1,17.4c0.6,1.4,2.4,2.1,3.8,1.4
				c1-0.6,1.9-1.4,2.6-2.3c0.2-0.4-0.1-0.8-0.6-0.6c-1,0.6-1.7,1.9-2.8,2.2c-2.3,0.4-3.2-2.9-0.9-3.6c0.8-0.2,1.2,0,1.5,0.2
				c0.3,0.2,0.5,0.3,0.9,0.2c0.5-0.4,0-0.9-0.5-1.1c-0.4-0.2-0.9-0.3-1.3-0.3C12.8,13.4,11.1,15.4,12.1,17.4"/>
		</defs>
		<clipPath id="SVGID_00000068641267796333883840000008216037906432554937_">
			<use xlink:href="#SVGID_00000068673978981585378950000007769335615927171769_"  style="overflow:visible;"/>
		</clipPath>
		
			<linearGradient id="SVGID_00000024708943311919719230000017003859282938828986_" gradientUnits="userSpaceOnUse" x1="-2610.9207" y1="866.1063" x2="-2610.7212" y2="866.1063" gradientTransform="matrix(33.5124 0 0 -33.5124 87510.0391 29041.707)">
			<stop  offset="0" style="stop-color:#085FCD"/>
			<stop  offset="1" style="stop-color:#4CBDD7"/>
		</linearGradient>
		
			<rect x="11.1" y="13.4" style="clip-path:url(#SVGID_00000068641267796333883840000008216037906432554937_);fill:url(#SVGID_00000024708943311919719230000017003859282938828986_);" width="7.5" height="6.1"/>
	</g>
	<g>
		<defs>
			<path id="SVGID_00000084489748334938520000000017399615159994485650_" d="M23.6,12.8L21.4,15c-0.1,0.1-0.1,0.3,0,0.4
				c0.1,0.1,0.3,0.1,0.4,0l2.2-2.2c0.1-0.1,0.1-0.3,0-0.4c-0.1-0.1-0.1-0.1-0.2-0.1C23.7,12.7,23.6,12.7,23.6,12.8"/>
		</defs>
		<clipPath id="SVGID_00000011711517397078575730000016121467848421596560_">
			<use xlink:href="#SVGID_00000084489748334938520000000017399615159994485650_"  style="overflow:visible;"/>
		</clipPath>
		
			<linearGradient id="SVGID_00000005954329291466628770000010459034435529341854_" gradientUnits="userSpaceOnUse" x1="-2607.4739" y1="728.2396" x2="-2607.2747" y2="728.2396" gradientTransform="matrix(9.4244 -10.1918 -10.1918 -9.4244 32018.0137 -19696.8828)">
			<stop  offset="0" style="stop-color:#30E393"/>
			<stop  offset="1" style="stop-color:#085FCD"/>
		</linearGradient>
		
			<polygon style="clip-path:url(#SVGID_00000011711517397078575730000016121467848421596560_);fill:url(#SVGID_00000005954329291466628770000010459034435529341854_);" points="
			19.9,14.2 22.6,11.3 25.5,14 22.8,16.9 		"/>
	</g>
	<g>
		<defs>
			<path id="SVGID_00000161624033077434779420000008465634089173787322_" d="M27.5,11.2l-4.6,4.6c-0.1,0.1-0.1,0.4,0,0.5
				c0.1,0.1,0.4,0.1,0.5,0l4.6-4.6c0.1-0.1,0.1-0.4,0-0.5c-0.1-0.1-0.2-0.1-0.2-0.1C27.7,11.1,27.6,11.1,27.5,11.2"/>
		</defs>
		<clipPath id="SVGID_00000158726987682790971100000001473073388460357029_">
			<use xlink:href="#SVGID_00000161624033077434779420000008465634089173787322_"  style="overflow:visible;"/>
		</clipPath>
		
			<linearGradient id="SVGID_00000141435540684325435240000011442067474270161820_" gradientUnits="userSpaceOnUse" x1="-2655.4543" y1="838.7399" x2="-2655.2549" y2="838.7399" gradientTransform="matrix(31.092 -30.5621 -30.5621 -31.092 108218.3047 -55060.4102)">
			<stop  offset="0" style="stop-color:#4CBDD7"/>
			<stop  offset="0.2374" style="stop-color:#30E393"/>
			<stop  offset="0.8662" style="stop-color:#085FCD"/>
			<stop  offset="1" style="stop-color:#085FCD"/>
		</linearGradient>
		
			<polygon style="clip-path:url(#SVGID_00000158726987682790971100000001473073388460357029_);fill:url(#SVGID_00000141435540684325435240000011442067474270161820_);" points="
			20.1,13.7 25.5,8.4 30.8,13.8 25.4,19.1 		"/>
	</g>
	<g>
		<defs>
			<path id="SVGID_00000084488503656760006220000004001152486838420900_" d="M28.5,12.8l-4,4.1c-0.1,0.1-0.1,0.3,0,0.4
				c0.1,0.1,0.3,0.1,0.4,0l4-4.1c0.1-0.1,0.1-0.3,0-0.4c-0.1-0.1-0.1-0.1-0.2-0.1C28.7,12.7,28.6,12.7,28.5,12.8"/>
		</defs>
		<clipPath id="SVGID_00000008827223141122042370000003938077398485030534_">
			<use xlink:href="#SVGID_00000084488503656760006220000004001152486838420900_"  style="overflow:visible;"/>
		</clipPath>
		
			<linearGradient id="SVGID_00000129182477778087207880000015593335121410916498_" gradientUnits="userSpaceOnUse" x1="-2649.6958" y1="826.7699" x2="-2649.4963" y2="826.7699" gradientTransform="matrix(24.8802 -24.8231 -24.8231 -24.8802 86471.1875 -45184.9023)">
			<stop  offset="0" style="stop-color:#30E393"/>
			<stop  offset="0.2374" style="stop-color:#30E393"/>
			<stop  offset="0.8662" style="stop-color:#085FCD"/>
			<stop  offset="1" style="stop-color:#085FCD"/>
		</linearGradient>
		
			<polygon style="clip-path:url(#SVGID_00000008827223141122042370000003938077398485030534_);fill:url(#SVGID_00000129182477778087207880000015593335121410916498_);" points="
			22,15 26.7,10.3 31.5,15.1 26.7,19.8 		"/>
	</g>
	<g>
		<defs>
			<path id="SVGID_00000178198056155564735740000008881964152596501692_" d="M28.4,19.1l-2.5,2.5c-0.1,0.1-0.1,0.3,0,0.4
				c0.1,0.1,0.3,0.1,0.4,0l2.5-2.5c0.1-0.1,0.1-0.3,0-0.4C28.8,19,28.7,19,28.6,19C28.6,19,28.5,19,28.4,19.1"/>
		</defs>
		<clipPath id="SVGID_00000124842710727322748670000010224460865834551943_">
			<use xlink:href="#SVGID_00000178198056155564735740000008881964152596501692_"  style="overflow:visible;"/>
		</clipPath>
		
			<linearGradient id="SVGID_00000077292768670123852110000007759616678713739667_" gradientUnits="userSpaceOnUse" x1="-2531.1909" y1="840.991" x2="-2530.9915" y2="840.991" gradientTransform="matrix(15.3896 0 0 -15.3896 38979.9023 12963.0508)">
			<stop  offset="0" style="stop-color:#4CBDD7"/>
			<stop  offset="1" style="stop-color:#085FCD"/>
		</linearGradient>
		
			<rect x="25.8" y="19" style="clip-path:url(#SVGID_00000124842710727322748670000010224460865834551943_);fill:url(#SVGID_00000077292768670123852110000007759616678713739667_);" width="3.1" height="3.1"/>
	</g>
	<g>
		<defs>
			<path id="SVGID_00000027602060369802285250000003724642685146307735_" d="M28.5,15.3l-1.1,1.1c-0.1,0.1-0.1,0.3,0,0.4
				c0.1,0.1,0.3,0.1,0.4,0l1.1-1.1c0.1-0.1,0.1-0.3,0-0.4c-0.1-0.1-0.1-0.1-0.2-0.1C28.6,15.2,28.5,15.2,28.5,15.3"/>
		</defs>
		<clipPath id="SVGID_00000034775193629347318490000002138107322974702754_">
			<use xlink:href="#SVGID_00000027602060369802285250000003724642685146307735_"  style="overflow:visible;"/>
		</clipPath>
		
			<linearGradient id="SVGID_00000069390931936175341010000017914524556820417947_" gradientUnits="userSpaceOnUse" x1="-2409.5674" y1="800.3813" x2="-2409.3679" y2="800.3813" gradientTransform="matrix(8.4916 0 0 -8.4916 20488.2715 6812.5718)">
			<stop  offset="0" style="stop-color:#4CBDD7"/>
			<stop  offset="1" style="stop-color:#085FCD"/>
		</linearGradient>
		
			<rect x="27.3" y="15.2" style="clip-path:url(#SVGID_00000034775193629347318490000002138107322974702754_);fill:url(#SVGID_00000069390931936175341010000017914524556820417947_);" width="1.8" height="1.7"/>
	</g>
	<g>
		<defs>
			<path id="SVGID_00000101811155060212995740000010227184399512882865_" d="M28.7,4.5l-1.6,1.6c-0.1,0.1-0.1,0.3,0,0.4
				c0.1,0.1,0.3,0.1,0.4,0l1.6-1.6c0.1-0.1,0.1-0.3,0-0.4c-0.1,0-0.1-0.1-0.2-0.1C28.8,4.5,28.7,4.5,28.7,4.5"/>
		</defs>
		<clipPath id="SVGID_00000141413941120786376020000011417554427214927003_">
			<use xlink:href="#SVGID_00000101811155060212995740000010227184399512882865_"  style="overflow:visible;"/>
		</clipPath>
		
			<linearGradient id="SVGID_00000019679643992583072970000005848745406292870826_" gradientUnits="userSpaceOnUse" x1="-2575.4221" y1="682.4906" x2="-2575.2227" y2="682.4906" gradientTransform="matrix(7.5939 -7.2985 -7.2985 -7.5939 24566.3184 -13607.9365)">
			<stop  offset="0" style="stop-color:#4CBDD7"/>
			<stop  offset="1" style="stop-color:#085FCD"/>
		</linearGradient>
		
			<polygon style="clip-path:url(#SVGID_00000141413941120786376020000011417554427214927003_);fill:url(#SVGID_00000019679643992583072970000005848745406292870826_);" points="
			25.9,5.5 28.1,3.4 30.2,5.6 28,7.7 		"/>
	</g>
	<g>
		<defs>
			<path id="SVGID_00000065035084468904980050000009645745817640011683_" d="M28.2,8.2L27.4,9c-0.1,0.1-0.1,0.3,0,0.4
				c0.1,0.1,0.3,0.1,0.4,0l0.8-0.8c0.1-0.1,0.1-0.3,0-0.4c-0.1,0-0.1-0.1-0.2-0.1C28.4,8.1,28.3,8.2,28.2,8.2"/>
		</defs>
		<clipPath id="SVGID_00000077326586023554601450000006303405464394727311_">
			<use xlink:href="#SVGID_00000065035084468904980050000009645745817640011683_"  style="overflow:visible;"/>
		</clipPath>
		
			<linearGradient id="SVGID_00000079475700843600853380000002017977400296045705_" gradientUnits="userSpaceOnUse" x1="-2338.6309" y1="773.0994" x2="-2338.4314" y2="773.0994" gradientTransform="matrix(6.7353 0 0 -6.7353 15778.7236 5215.873)">
			<stop  offset="0" style="stop-color:#4CBDD7"/>
			<stop  offset="1" style="stop-color:#085FCD"/>
		</linearGradient>
		
			<rect x="27.3" y="8.1" style="clip-path:url(#SVGID_00000077326586023554601450000006303405464394727311_);fill:url(#SVGID_00000079475700843600853380000002017977400296045705_);" width="1.4" height="1.4"/>
	</g>
	<path class="st13" d="M27.1,9.8c0.1,0.1,0.1,0.2,0.1,0.3c0,0.1,0,0.2-0.1,0.3l-0.4,0.4C26.5,11,26.4,11,26.3,11l-1.5,1.5
		c-0.1,0.1-0.3,0.1-0.5,0c-0.1-0.1-0.1-0.1-0.1-0.2c0-0.1,0-0.2,0.1-0.2l2.2-2.2C26.7,9.7,26.9,9.7,27.1,9.8"/>
	<g>
		<defs>
			<path id="SVGID_00000052815827853288143940000010498995250588527030_" d="M27.5,3.1l-1.7,1.7c-0.2,0-0.3,0-0.5,0.1l-0.5,0.5
				c-0.1,0.1-0.1,0.2-0.1,0.4c0,0.2,0.1,0.4,0.4,0.5c0.2,0,0.4,0,0.5-0.1l2.5-2.6c0.1-0.1,0.1-0.2,0.1-0.3c0-0.1-0.1-0.3-0.2-0.4
				c0,0-0.1,0-0.1,0C27.7,2.9,27.6,3,27.5,3.1"/>
		</defs>
		<clipPath id="SVGID_00000053531355318085326260000001688866257626171272_">
			<use xlink:href="#SVGID_00000052815827853288143940000010498995250588527030_"  style="overflow:visible;"/>
		</clipPath>
		
			<linearGradient id="SVGID_00000145059156025764009510000013611873336511742614_" gradientUnits="userSpaceOnUse" x1="-2550.4304" y1="843.5285" x2="-2550.231" y2="843.5285" gradientTransform="matrix(17.6808 0 0 -17.6808 45118.375 14918.9199)">
			<stop  offset="0" style="stop-color:#4CBDD7"/>
			<stop  offset="1" style="stop-color:#085FCD"/>
		</linearGradient>
		
			<rect x="24.7" y="2.9" style="clip-path:url(#SVGID_00000053531355318085326260000001688866257626171272_);fill:url(#SVGID_00000145059156025764009510000013611873336511742614_);" width="3.5" height="3.4"/>
	</g>
	<g>
		<defs>
			<path id="SVGID_00000087380361583729213420000017294514888132708998_" d="M23.5,17.7l-0.6,0.6c-0.2,0.2-0.2,0.5,0,0.7
				c0.2,0.2,0.5,0.2,0.7,0l0.6-0.6c0.2-0.2,0.2-0.5,0-0.7c-0.1-0.1-0.2-0.1-0.3-0.1C23.7,17.5,23.6,17.6,23.5,17.7"/>
		</defs>
		<clipPath id="SVGID_00000182501884305091506220000016437177315290164881_">
			<use xlink:href="#SVGID_00000087380361583729213420000017294514888132708998_"  style="overflow:visible;"/>
		</clipPath>
		
			<linearGradient id="SVGID_00000112590596948038473820000004143262150376893094_" gradientUnits="userSpaceOnUse" x1="-2547.115" y1="618.8521" x2="-2546.9155" y2="618.8521" gradientTransform="matrix(5.6385 -5.8238 -5.8238 -5.6385 17988.9395 -11325.3896)">
			<stop  offset="0" style="stop-color:#4CBDD7"/>
			<stop  offset="1" style="stop-color:#085FCD"/>
		</linearGradient>
		
			<polygon style="clip-path:url(#SVGID_00000182501884305091506220000016437177315290164881_);fill:url(#SVGID_00000112590596948038473820000004143262150376893094_);" points="
			21.8,18.4 23.5,16.7 25.2,18.3 23.5,20 		"/>
	</g>
	<path class="st13" d="M22.9,15.8c0.3,0,0.6,0.3,0.6,0.6c0,0.3-0.3,0.6-0.6,0.6c-0.3,0-0.6-0.3-0.6-0.6C22.3,16,22.5,15.8,22.9,15.8
		"/>
	<path class="st16" d="M25.4,19.5c0.2,0.2,0.2,0.5,0,0.7c-0.2,0.2-0.5,0.2-0.7,0c-0.2-0.2-0.2-0.5,0-0.7
		C24.9,19.3,25.2,19.3,25.4,19.5"/>
	<path class="st16" d="M26.9,17.9c0.2,0.2,0.2,0.5,0,0.7c-0.2,0.2-0.5,0.2-0.7,0c-0.2-0.2-0.2-0.5,0-0.7
		C26.4,17.7,26.7,17.7,26.9,17.9"/>
	<path class="st13" d="M29.7,7.2c0.2,0.2,0.2,0.4,0,0.6c-0.2,0.2-0.4,0.2-0.6,0c-0.2-0.2-0.2-0.4,0-0.6C29.2,7,29.5,7,29.7,7.2"/>
	<path class="st16" d="M39.7,15.2c0,0.3-0.1,0.6-0.2,0.9c-0.1,0.3-0.3,0.6-0.6,0.9c-0.3,0.3-0.7,0.5-1.1,0.7
		c-0.2,0.1-0.4,0.2-0.7,0.2C36.8,18,36.5,18,36.2,18c-0.5,0-0.9,0-1.2-0.1c-0.2,0-0.4-0.1-0.5-0.2c-0.2-0.1-0.3-0.1-0.5-0.2
		c-0.3-0.2-0.6-0.4-0.8-0.7c-0.2-0.3-0.4-0.6-0.6-0.9c-0.2-0.3-0.3-0.7-0.4-1.1c0-0.2-0.1-0.4-0.1-0.6c0-0.2,0-0.4,0-0.6
		c0-0.7,0.1-1.3,0.3-1.8c0.2-0.5,0.5-1,0.8-1.4c0.4-0.4,0.8-0.7,1.3-0.9c0.3-0.1,0.5-0.2,0.8-0.2c0.3-0.1,0.5-0.1,0.8-0.1
		c0.7,0,1.3,0.1,1.8,0.4c0.5,0.3,0.9,0.6,1.2,1c0.3,0.4,0.4,0.8,0.4,1.1c0,0.2-0.1,0.4-0.2,0.5c-0.1,0.1-0.3,0.2-0.5,0.2
		c-0.2,0-0.4-0.1-0.5-0.2c-0.1-0.1-0.2-0.3-0.4-0.5c-0.2-0.4-0.5-0.7-0.8-0.9c-0.3-0.2-0.7-0.3-1.1-0.3c-0.7,0-1.3,0.3-1.7,0.8
		c-0.4,0.5-0.6,1.3-0.6,2.3c0,0.7,0.1,1.2,0.3,1.6c0.2,0.4,0.4,0.8,0.8,1c0.3,0.2,0.7,0.3,1.2,0.3c0.5,0,0.9-0.1,1.2-0.4
		c0.3-0.2,0.6-0.6,0.8-1.1c0.1-0.2,0.2-0.4,0.3-0.5c0.1-0.1,0.3-0.2,0.5-0.2c0.2,0,0.4,0.1,0.5,0.2C39.6,14.8,39.7,15,39.7,15.2"/>
	<path class="st16" d="M47,14.8c0,0.2,0,0.5-0.1,0.7c0,0.2-0.1,0.4-0.2,0.6c-0.1,0.4-0.4,0.7-0.6,1c-0.3,0.3-0.6,0.5-1,0.7
		C44.8,18,44.4,18,43.9,18c-0.5,0-0.9-0.1-1.3-0.2c-0.4-0.2-0.7-0.4-1-0.7c-0.3-0.3-0.5-0.6-0.6-1c-0.1-0.4-0.2-0.8-0.2-1.3
		c0-0.5,0.1-0.9,0.2-1.3c0.1-0.4,0.4-0.7,0.6-1c0.3-0.3,0.6-0.5,1-0.7c0.4-0.2,0.8-0.2,1.3-0.2c0.5,0,0.9,0.1,1.3,0.2
		c0.4,0.1,0.7,0.4,1,0.7c0.3,0.3,0.5,0.6,0.6,1C47,13.9,47,14.4,47,14.8 M45.5,14.8c0-0.6-0.1-1.1-0.4-1.5c-0.3-0.4-0.7-0.5-1.1-0.5
		c-0.3,0-0.6,0.1-0.8,0.2c-0.2,0.2-0.4,0.4-0.5,0.7c-0.1,0.3-0.2,0.7-0.2,1.1c0,0.4,0.1,0.8,0.2,1.1c0.1,0.3,0.3,0.5,0.5,0.7
		c0.2,0.2,0.5,0.2,0.8,0.2c0.5,0,0.8-0.2,1.1-0.5C45.3,16,45.5,15.5,45.5,14.8"/>
	<path class="st16" d="M52.6,17.1V17c-0.2,0.2-0.4,0.4-0.6,0.6c-0.2,0.2-0.4,0.3-0.7,0.3C51.1,18,50.8,18,50.5,18
		c-0.4,0-0.7-0.1-1.1-0.2c-0.3-0.2-0.6-0.4-0.8-0.7c-0.2-0.3-0.4-0.6-0.5-1C48,15.9,48,15.7,48,15.5c0-0.2,0-0.4,0-0.7
		c0-1,0.2-1.8,0.7-2.3c0.5-0.6,1.1-0.8,1.9-0.8c0.5,0,0.8,0.1,1.1,0.2c0.3,0.2,0.6,0.4,0.9,0.7v-2.3c0-0.3,0.1-0.6,0.2-0.7
		c0.1-0.2,0.3-0.3,0.6-0.3c0.2,0,0.4,0.1,0.5,0.2c0.1,0.2,0.2,0.4,0.2,0.7v7c0,0.3-0.1,0.5-0.2,0.7C53.7,18,53.6,18,53.3,18
		c-0.2,0-0.4-0.1-0.5-0.2C52.7,17.7,52.6,17.4,52.6,17.1 M49.5,14.8c0,0.4,0.1,0.8,0.2,1.1c0.1,0.3,0.3,0.5,0.5,0.7
		c0.2,0.2,0.5,0.2,0.8,0.2c0.3,0,0.5-0.1,0.8-0.2c0.2-0.1,0.4-0.4,0.5-0.7c0.1-0.3,0.2-0.7,0.2-1.1c0-0.4-0.1-0.8-0.2-1.1
		c-0.1-0.3-0.3-0.5-0.6-0.7c-0.2-0.2-0.5-0.2-0.8-0.2c-0.3,0-0.5,0.1-0.8,0.2c-0.2,0.2-0.4,0.4-0.5,0.7
		C49.6,14.1,49.5,14.4,49.5,14.8"/>
	<path class="st16" d="M60.1,15.2H57c0,0.4,0.1,0.7,0.2,0.9c0.1,0.3,0.3,0.5,0.6,0.6s0.5,0.2,0.8,0.2c0.2,0,0.4,0,0.5-0.1
		c0.2,0,0.3-0.1,0.5-0.2c0.1,0,0.1-0.1,0.2-0.1c0.1-0.1,0.1-0.1,0.2-0.2l0.5-0.4c0.1-0.1,0.2-0.1,0.3-0.1c0.2,0,0.3,0,0.4,0.1
		c0.1,0.1,0.2,0.2,0.2,0.4c0,0.1-0.1,0.3-0.2,0.5c-0.1,0.2-0.3,0.4-0.5,0.5c-0.2,0.2-0.5,0.3-0.8,0.4C59.4,18,59,18,58.6,18
		c-1,0-1.8-0.3-2.4-0.9c-0.6-0.6-0.8-1.4-0.8-2.3c0-0.5,0.1-0.9,0.2-1.3s0.3-0.7,0.6-1c0.3-0.3,0.6-0.5,1-0.7
		c0.2-0.1,0.4-0.1,0.6-0.2c0.2,0,0.4-0.1,0.7-0.1c0.6,0,1.1,0.1,1.6,0.4c0.4,0.3,0.8,0.6,1,1c0.2,0.4,0.3,0.8,0.3,1.3
		c0,0.4-0.1,0.6-0.3,0.8C60.8,15.2,60.5,15.2,60.1,15.2 M57,14.3h2.9c0-0.3,0-0.5-0.1-0.7c-0.1-0.2-0.2-0.4-0.3-0.5
		c-0.3-0.3-0.6-0.4-1-0.4c-0.4,0-0.7,0.1-1,0.4C57.2,13.4,57,13.8,57,14.3"/>
	<path class="st16" d="M65.8,17v-6.7c0-0.4,0.1-0.6,0.2-0.8c0.2-0.2,0.4-0.3,0.6-0.3c0.3,0,0.5,0.1,0.6,0.3c0.2,0.2,0.2,0.4,0.2,0.8
		V17c0,0.3-0.1,0.6-0.2,0.8C67.1,18,66.9,18,66.7,18c-0.2,0-0.4-0.1-0.6-0.3C65.9,17.6,65.8,17.3,65.8,17"/>
	<path class="st16" d="M70.8,12.5v0.2c0.3-0.4,0.6-0.6,0.9-0.8c0.3-0.2,0.7-0.3,1.1-0.3c0.2,0,0.4,0,0.6,0.1c0.2,0,0.4,0.1,0.5,0.2
		c0.3,0.2,0.6,0.4,0.7,0.8c0.1,0.2,0.2,0.4,0.2,0.6c0,0.1,0,0.2,0,0.4c0,0.1,0,0.3,0,0.5v2.9c0,0.3-0.1,0.6-0.2,0.7
		C74.6,18,74.4,18,74.1,18c-0.2,0-0.4-0.1-0.6-0.2c-0.1-0.2-0.2-0.4-0.2-0.7v-2.6c0-0.5-0.1-0.9-0.2-1.2c-0.1-0.3-0.4-0.4-0.9-0.4
		c-0.3,0-0.5,0.1-0.8,0.2c-0.2,0.2-0.4,0.4-0.5,0.7c-0.1,0.2-0.1,0.7-0.1,1.3v2c0,0.3-0.1,0.5-0.2,0.7C70.5,18,70.3,18,70.1,18
		c-0.2,0-0.4-0.1-0.6-0.2c-0.1-0.2-0.2-0.4-0.2-0.7v-4.6c0-0.3,0.1-0.5,0.2-0.7c0.1-0.1,0.3-0.2,0.5-0.2c0.1,0,0.3,0,0.4,0.1
		c0.1,0.1,0.2,0.2,0.3,0.3C70.7,12.2,70.8,12.3,70.8,12.5"/>
	<path class="st16" d="M81.6,16c0,0.4-0.1,0.8-0.3,1.1c-0.2,0.3-0.5,0.5-0.9,0.7C79.9,18,79.4,18,78.8,18c-0.6,0-1.1-0.1-1.5-0.3
		c-0.4-0.2-0.7-0.4-0.9-0.6c-0.2-0.3-0.3-0.5-0.3-0.8c0-0.2,0.1-0.3,0.2-0.4c0.1-0.1,0.3-0.2,0.5-0.2c0.2,0,0.3,0,0.4,0.1
		c0.1,0.1,0.2,0.2,0.3,0.3c0.2,0.3,0.4,0.5,0.6,0.6C78.3,17,78.6,17,79,17c0.3,0,0.6-0.1,0.8-0.2c0.2-0.1,0.3-0.3,0.3-0.5
		c0-0.3-0.1-0.5-0.3-0.6c-0.2-0.1-0.6-0.2-1-0.4c-0.5-0.1-1-0.3-1.3-0.4c-0.3-0.1-0.6-0.3-0.8-0.6c-0.2-0.2-0.3-0.5-0.3-0.9
		c0-0.3,0.1-0.6,0.3-0.9c0.2-0.3,0.5-0.5,0.8-0.7c0.4-0.2,0.8-0.3,1.3-0.3c0.4,0,0.8,0,1.1,0.1c0.3,0.1,0.6,0.2,0.8,0.3
		c0.2,0.1,0.4,0.3,0.5,0.5c0.1,0.2,0.2,0.3,0.2,0.5c0,0.2-0.1,0.3-0.2,0.4c-0.1,0.1-0.3,0.2-0.5,0.2c-0.2,0-0.3,0-0.4-0.1
		c-0.1-0.1-0.2-0.2-0.4-0.4c-0.1-0.1-0.3-0.3-0.4-0.4c-0.2-0.1-0.4-0.1-0.7-0.1c-0.3,0-0.5,0.1-0.7,0.2c-0.2,0.1-0.3,0.3-0.3,0.5
		c0,0.2,0.1,0.3,0.2,0.4c0.1,0.1,0.3,0.2,0.6,0.3c0.1,0,0.2,0.1,0.4,0.1c0.2,0.1,0.4,0.1,0.6,0.1c0.5,0.1,0.9,0.3,1.2,0.4
		c0.3,0.2,0.5,0.4,0.7,0.6C81.5,15.4,81.6,15.7,81.6,16"/>
	<path class="st16" d="M84.5,12.5v4.6c0,0.3-0.1,0.5-0.2,0.7C84.1,18,83.9,18,83.7,18c-0.2,0-0.4-0.1-0.6-0.2
		c-0.1-0.2-0.2-0.4-0.2-0.7v-4.5c0-0.3,0.1-0.5,0.2-0.7c0.1-0.2,0.3-0.2,0.6-0.2c0.2,0,0.4,0.1,0.6,0.2C84.4,12,84.5,12.2,84.5,12.5
		"/>
	<path class="st16" d="M91.9,12.8v4.6c0,0.5-0.1,1-0.2,1.4c-0.1,0.4-0.3,0.7-0.5,0.9c-0.2,0.2-0.6,0.4-1,0.6
		c-0.2,0.1-0.4,0.1-0.7,0.1c-0.2,0-0.5,0-0.8,0c-0.5,0-1-0.1-1.5-0.2c-0.4-0.2-0.8-0.3-1-0.6c-0.2-0.2-0.3-0.5-0.3-0.7
		c0-0.2,0.1-0.3,0.2-0.5c0.1-0.1,0.3-0.2,0.5-0.2c0.2,0,0.4,0.1,0.6,0.3l0.3,0.3c0.1,0.1,0.2,0.2,0.3,0.3c0.1,0.1,0.2,0.1,0.4,0.2
		c0.1,0,0.2,0,0.2,0c0.1,0,0.2,0,0.3,0c0.4,0,0.7-0.1,0.9-0.2c0.2-0.1,0.4-0.3,0.5-0.5c0.1-0.1,0.1-0.2,0.1-0.3c0-0.1,0-0.2,0-0.3
		l0-1.1c-0.2,0.3-0.5,0.6-0.8,0.8c-0.2,0.1-0.3,0.2-0.5,0.2c-0.2,0-0.4,0.1-0.6,0.1c-0.5,0-1-0.1-1.4-0.4c-0.4-0.3-0.7-0.6-0.9-1.1
		c-0.2-0.5-0.3-1.1-0.3-1.7c0-0.5,0.1-0.9,0.2-1.3c0.1-0.4,0.3-0.7,0.6-1c0.2-0.3,0.5-0.5,0.8-0.6c0.3-0.1,0.7-0.2,1-0.2
		c0.4,0,0.8,0.1,1.2,0.3c0.3,0.2,0.6,0.4,0.9,0.8v-0.2c0-0.3,0.1-0.5,0.2-0.6c0.1-0.2,0.3-0.2,0.5-0.2c0.3,0,0.5,0.1,0.6,0.3
		C91.9,12.1,91.9,12.4,91.9,12.8 M87.3,14.8c0,0.6,0.1,1.1,0.4,1.4c0.3,0.3,0.6,0.5,1.1,0.5c0.3,0,0.5-0.1,0.7-0.2s0.4-0.4,0.6-0.6
		c0.1-0.3,0.2-0.6,0.2-1c0-0.6-0.1-1.1-0.4-1.5c-0.3-0.4-0.7-0.5-1.1-0.5c-0.5,0-0.8,0.2-1.1,0.5C87.5,13.7,87.3,14.2,87.3,14.8"/>
	<path class="st16" d="M95,10.2v2.3c0.2-0.2,0.4-0.4,0.6-0.5c0.2-0.1,0.4-0.2,0.6-0.3c0.2-0.1,0.5-0.1,0.7-0.1c0.2,0,0.4,0,0.6,0.1
		c0.2,0,0.3,0.1,0.5,0.2c0.3,0.2,0.6,0.4,0.7,0.7c0.1,0.2,0.2,0.4,0.2,0.6c0,0.1,0,0.2,0,0.4c0,0.1,0,0.3,0,0.4v3
		c0,0.3-0.1,0.6-0.2,0.7C98.7,18,98.5,18,98.3,18c-0.5,0-0.8-0.3-0.8-1v-2.7c0-0.5-0.1-0.9-0.2-1.2c-0.1-0.3-0.4-0.4-0.9-0.4
		c-0.3,0-0.5,0.1-0.8,0.2c-0.2,0.2-0.4,0.4-0.5,0.7C95.1,14,95,14.4,95,15v2.1c0,0.3-0.1,0.5-0.2,0.7C94.7,18,94.5,18,94.2,18
		c-0.5,0-0.8-0.3-0.8-1v-6.8c0-0.3,0.1-0.6,0.2-0.7c0.1-0.2,0.3-0.2,0.6-0.2c0.2,0,0.4,0.1,0.6,0.2C95,9.7,95,9.9,95,10.2"/>
	<path class="st16" d="M100.7,11.8h0.2v-0.9c0-0.1,0-0.2,0-0.3c0-0.1,0-0.2,0-0.3c0-0.1,0-0.1,0-0.2c0-0.1,0-0.1,0.1-0.2
		c0.1-0.1,0.1-0.2,0.3-0.3c0.1-0.1,0.2-0.1,0.4-0.1c0.2,0,0.4,0.1,0.5,0.2c0.1,0.1,0.2,0.2,0.2,0.4c0,0.1,0,0.2,0,0.2
		c0,0.1,0,0.2,0,0.4v1.1h0.6c0.2,0,0.4,0.1,0.5,0.2c0.1,0.1,0.2,0.2,0.2,0.4c0,0.2-0.1,0.4-0.3,0.4c-0.2,0.1-0.4,0.1-0.7,0.1h-0.3
		v2.9v0.3c0,0.1,0,0.2,0,0.3c0,0.1,0.1,0.2,0.1,0.3c0.1,0.1,0.2,0.1,0.4,0.1c0.1,0,0.2,0,0.2,0c0.1,0,0.1,0,0.2,0
		c0.2,0,0.3-0.1,0.4-0.1c0.1,0,0.2,0.1,0.3,0.2c0.1,0.1,0.2,0.2,0.2,0.4c0,0.3-0.1,0.4-0.4,0.6c-0.3,0.1-0.7,0.2-1.2,0.2
		c-0.5,0-0.9-0.1-1.1-0.2c-0.3-0.2-0.4-0.4-0.5-0.7c-0.1-0.3-0.1-0.7-0.1-1.2v-3h-0.2c-0.2,0-0.4-0.1-0.5-0.2
		c-0.1-0.1-0.2-0.2-0.2-0.4c0-0.2,0.1-0.3,0.2-0.4C100.3,11.8,100.5,11.8,100.7,11.8"/>
	<path class="st16" d="M109.9,16c0,0.4-0.1,0.8-0.3,1.1c-0.2,0.3-0.5,0.5-0.9,0.7c-0.4,0.2-0.9,0.2-1.5,0.2c-0.6,0-1.1-0.1-1.5-0.3
		c-0.4-0.2-0.7-0.4-0.9-0.6c-0.2-0.3-0.3-0.5-0.3-0.8c0-0.2,0.1-0.3,0.2-0.4c0.1-0.1,0.3-0.2,0.5-0.2c0.2,0,0.3,0,0.4,0.1
		c0.1,0.1,0.2,0.2,0.3,0.3c0.2,0.3,0.4,0.5,0.6,0.6c0.2,0.1,0.5,0.2,0.9,0.2c0.3,0,0.6-0.1,0.8-0.2c0.2-0.1,0.3-0.3,0.3-0.5
		c0-0.3-0.1-0.5-0.3-0.6c-0.2-0.1-0.6-0.2-1-0.4c-0.5-0.1-1-0.3-1.3-0.4c-0.3-0.1-0.6-0.3-0.8-0.6c-0.2-0.2-0.3-0.5-0.3-0.9
		c0-0.3,0.1-0.6,0.3-0.9c0.2-0.3,0.5-0.5,0.8-0.7c0.4-0.2,0.8-0.3,1.3-0.3c0.4,0,0.8,0,1.1,0.1c0.3,0.1,0.6,0.2,0.8,0.3
		c0.2,0.1,0.4,0.3,0.5,0.5c0.1,0.2,0.2,0.3,0.2,0.5c0,0.2-0.1,0.3-0.2,0.4c-0.1,0.1-0.3,0.2-0.5,0.2c-0.2,0-0.3,0-0.4-0.1
		c-0.1-0.1-0.2-0.2-0.4-0.4c-0.1-0.1-0.3-0.3-0.4-0.4c-0.2-0.1-0.4-0.1-0.7-0.1c-0.3,0-0.5,0.1-0.7,0.2c-0.2,0.1-0.3,0.3-0.3,0.5
		c0,0.2,0.1,0.3,0.2,0.4c0.1,0.1,0.3,0.2,0.6,0.3c0.1,0,0.2,0.1,0.4,0.1c0.2,0.1,0.4,0.1,0.6,0.1c0.5,0.1,0.9,0.3,1.2,0.4
		c0.3,0.2,0.5,0.4,0.7,0.6C109.8,15.4,109.9,15.7,109.9,16"/>
	<path class="st17" d="M83.7,10.9c-0.2,0-0.4-0.1-0.6-0.2c-0.2-0.1-0.2-0.3-0.2-0.6c0-0.2,0.1-0.4,0.2-0.5c0.2-0.1,0.3-0.2,0.6-0.2
		c0.2,0,0.4,0.1,0.5,0.2c0.2,0.1,0.2,0.3,0.2,0.6c0,0.2-0.1,0.4-0.2,0.6C84.1,10.8,83.9,10.9,83.7,10.9"/>
	<g>
		<defs>
			<path id="SVGID_00000075883800588482760060000000491075885556380326_" d="M4.7,16.3c0,5.4,4.4,9.8,9.8,9.8c4,0,7.5-2.4,9-5.9
				c-1-0.8-2-1.3-3.2-0.3c-4,5-12.5,2.6-12.7-4c0.1-6.6,8.6-9,12.7-4c1.2,0.9,2.1,0.6,3-0.1c-1.6-3.2-4.9-5.4-8.8-5.4
				C9.1,6.5,4.7,10.9,4.7,16.3"/>
		</defs>
		<clipPath id="SVGID_00000052795090911939618980000005450225067977036206_">
			<use xlink:href="#SVGID_00000075883800588482760060000000491075885556380326_"  style="overflow:visible;"/>
		</clipPath>
		
			<linearGradient id="SVGID_00000089572108091327260030000018093610479594334099_" gradientUnits="userSpaceOnUse" x1="-2686.4912" y1="872.1938" x2="-2686.2917" y2="872.1938" gradientTransform="matrix(0 -146.1623 -146.1623 0 127496.0078 -392634.4375)">
			<stop  offset="0" style="stop-color:#30E393"/>
			<stop  offset="9.776540e-02" style="stop-color:#30E393"/>
			<stop  offset="0.7095" style="stop-color:#4CBDD7"/>
			<stop  offset="1" style="stop-color:#085FCD"/>
		</linearGradient>
		
			<rect x="4.7" y="6.5" style="clip-path:url(#SVGID_00000052795090911939618980000005450225067977036206_);fill:url(#SVGID_00000089572108091327260030000018093610479594334099_);" width="18.8" height="19.7"/>
	</g>
	<path class="st13" d="M33.1,21.6h0.3v2c0,0.2,0,0.4,0.3,0.4h0.1v0.1h-0.3c-0.1,0-0.2,0-0.3-0.1c-0.1-0.1-0.1-0.2-0.1-0.4V21.6z"/>
	<path class="st13" d="M34.9,24.1h-0.3v-1.3c0-0.2,0-0.4-0.3-0.4h-0.1v-0.1h0.3c0.2,0,0.3,0.1,0.3,0.1h0c0.1-0.1,0.3-0.2,0.5-0.2
		c0.2,0,0.3,0,0.4,0.1c0.1,0.1,0.2,0.3,0.2,0.5v1.1h-0.3V23c0-0.2-0.1-0.3-0.1-0.4c-0.1-0.1-0.2-0.1-0.3-0.1c-0.2,0-0.3,0.1-0.4,0.2
		V24.1z"/>
	<path class="st13" d="M38.2,23.6c0,0.2-0.1,0.3-0.2,0.4c-0.1,0.1-0.3,0.1-0.5,0.1c-0.3,0-0.5-0.1-0.6-0.2c-0.1-0.1-0.1-0.2-0.1-0.4
		h0.1c0,0.2,0.2,0.4,0.5,0.4c0.3,0,0.4-0.1,0.4-0.3c0-0.1-0.1-0.2-0.3-0.3l-0.2-0.1c-0.3-0.1-0.4-0.3-0.4-0.5c0-0.2,0.1-0.3,0.2-0.4
		c0.1-0.1,0.3-0.1,0.4-0.1c0.3,0,0.5,0.1,0.6,0.1c0.1,0.1,0.1,0.2,0.1,0.4H38c0-0.2-0.2-0.4-0.5-0.4c-0.2,0-0.4,0.1-0.4,0.3
		c0,0.1,0.1,0.2,0.3,0.3l0.2,0.1C38,23.2,38.2,23.4,38.2,23.6"/>
	<path class="st13" d="M39.4,24.1h-0.3v-1.3c0-0.2,0-0.4-0.3-0.4h-0.1v-0.1h0.3c0.1,0,0.2,0,0.3,0.1c0.1,0.1,0.1,0.2,0.1,0.4V24.1z
		 M39.4,22c0,0.1-0.1,0.2-0.2,0.2c-0.1,0-0.2-0.1-0.2-0.2c0-0.1,0.1-0.2,0.2-0.2C39.3,21.7,39.4,21.8,39.4,22"/>
	<path class="st13" d="M40.3,22.9c0-0.2,0.1-0.4,0.2-0.4c0.1-0.1,0.3-0.1,0.5-0.1h0.7v0.1l-0.2,0v0c0.1,0.1,0.3,0.2,0.3,0.4
		c0,0.2-0.1,0.3-0.2,0.4c-0.1,0.1-0.3,0.1-0.5,0.1c-0.3,0-0.4,0-0.4,0.1c0,0.1,0.1,0.1,0.4,0.1c0.2,0,0.4,0,0.6,0.1
		c0.1,0.1,0.2,0.2,0.2,0.4s-0.1,0.3-0.2,0.4c-0.1,0.1-0.3,0.1-0.6,0.1c-0.2,0-0.4,0-0.6-0.1c-0.1-0.1-0.2-0.2-0.2-0.4
		c0-0.2,0.2-0.4,0.4-0.5c-0.1,0-0.1-0.1-0.1-0.2c0-0.1,0.1-0.2,0.1-0.2C40.5,23.3,40.3,23.1,40.3,22.9 M40.9,23.8
		c-0.2,0.1-0.3,0.2-0.3,0.4c0,0.3,0.2,0.4,0.5,0.4c0.3,0,0.5-0.1,0.5-0.4c0-0.2-0.2-0.4-0.4-0.4L40.9,23.8z M41.4,22.9
		c0-0.3-0.2-0.4-0.4-0.4c-0.1,0-0.2,0-0.3,0.1c-0.1,0.1-0.1,0.2-0.1,0.3c0,0.2,0,0.3,0.1,0.3c0.1,0.1,0.2,0.1,0.3,0.1
		c0.1,0,0.2,0,0.3-0.1C41.4,23.1,41.4,23,41.4,22.9"/>
	<path class="st13" d="M43,22.5c0.1-0.1,0.3-0.2,0.5-0.2c0.2,0,0.3,0,0.4,0.1c0.1,0.1,0.2,0.3,0.2,0.5v1.1h-0.3V23
		c0-0.2-0.1-0.3-0.1-0.4c-0.1-0.1-0.2-0.1-0.3-0.1c-0.1,0-0.3,0.1-0.4,0.2v1.4h-0.3v-2c0-0.2,0-0.4-0.3-0.4h-0.1v-0.1h0.3
		c0.1,0,0.2,0,0.3,0.1c0.1,0.1,0.1,0.2,0.1,0.4V22.5z"/>
	<path class="st13" d="M45.1,22.5h-0.3v-0.1h0.3V22l0.2-0.2h0.2v0.6h0.4v0.1h-0.4v1.1c0,0.2,0.1,0.3,0.3,0.3c0.1,0,0.2,0,0.3-0.1
		l0,0.1c0,0-0.1,0.1-0.2,0.1c-0.1,0-0.2,0.1-0.3,0.1c-0.3,0-0.4-0.1-0.4-0.5V22.5z"/>
	<path class="st13" d="M47.4,21.8c-0.1,0-0.2,0-0.2,0.1c-0.1,0.1-0.1,0.2-0.1,0.4v0.1h0.5v0.1h-0.5v1.6h-0.3v-1.6h-0.3v-0.1h0.3
		v-0.1c0-0.3,0.1-0.4,0.2-0.5c0.1-0.1,0.3-0.1,0.4-0.1c0.2,0,0.3,0,0.3,0.1c0.1,0,0.1,0.1,0.1,0.2l-0.1,0.1
		C47.7,21.8,47.6,21.8,47.4,21.8"/>
	<path class="st13" d="M49.5,22.3h0.3v1.7h-0.2l-0.1-0.1h0c-0.1,0.1-0.3,0.2-0.5,0.2c-0.2,0-0.3,0-0.4-0.1c-0.1-0.1-0.2-0.3-0.2-0.5
		v-0.7c0-0.2,0-0.4-0.3-0.4h0v-0.1h0.3c0.1,0,0.2,0,0.3,0.1c0.1,0.1,0.1,0.2,0.1,0.4v0.7c0,0.2,0.1,0.3,0.1,0.4
		c0.1,0.1,0.2,0.1,0.3,0.1c0.1,0,0.3-0.1,0.4-0.2V22.3z"/>
	<path class="st13" d="M51.2,24.1h-0.3v-2c0-0.2,0-0.4-0.3-0.4h-0.1v-0.1h0.3c0.1,0,0.2,0,0.3,0.1c0.1,0.1,0.1,0.2,0.1,0.4V24.1z"/>
	<path class="st13" d="M55.6,22.4c-0.1-0.5-0.3-0.7-0.8-0.7c-0.2,0-0.5,0.1-0.6,0.3c-0.2,0.2-0.3,0.5-0.3,0.9c0,0.3,0.1,0.5,0.2,0.8
		c0.1,0.2,0.4,0.3,0.7,0.3c0.4,0,0.6-0.2,0.8-0.5l0.1,0.1c-0.1,0.2-0.3,0.4-0.4,0.5c-0.2,0.1-0.4,0.1-0.6,0.1
		c-0.3,0-0.6-0.1-0.8-0.4c-0.2-0.2-0.3-0.5-0.3-0.9c0-0.4,0.1-0.7,0.3-0.9c0.2-0.2,0.5-0.4,0.8-0.4c0.4,0,0.7,0.1,0.8,0.3
		C55.7,22,55.7,22.2,55.6,22.4L55.6,22.4z"/>
	<path class="st13" d="M56.5,23.2c0-0.3,0.1-0.5,0.2-0.6c0.1-0.2,0.3-0.3,0.6-0.3c0.3,0,0.5,0.1,0.6,0.3c0.1,0.2,0.2,0.4,0.2,0.6
		c0,0.2-0.1,0.5-0.2,0.6c-0.1,0.2-0.3,0.3-0.6,0.3c-0.3,0-0.5-0.1-0.6-0.3C56.6,23.7,56.5,23.5,56.5,23.2 M57.8,23.2
		c0-0.2,0-0.4-0.1-0.5c-0.1-0.1-0.2-0.2-0.3-0.2c-0.1,0-0.3,0.1-0.3,0.2c-0.1,0.1-0.1,0.3-0.1,0.5c0,0.2,0,0.4,0.1,0.5
		c0.1,0.1,0.2,0.2,0.3,0.2c0.1,0,0.3-0.1,0.3-0.2C57.8,23.6,57.8,23.4,57.8,23.2"/>
	<path class="st13" d="M60.4,24.1h-0.2l-0.1-0.2h0c0,0-0.1,0.1-0.2,0.1c-0.1,0-0.2,0.1-0.3,0.1c-0.2,0-0.4-0.1-0.5-0.3
		C59,23.7,59,23.5,59,23.2c0-0.3,0.1-0.5,0.2-0.6c0.1-0.2,0.3-0.3,0.5-0.3c0.2,0,0.3,0.1,0.5,0.1v-0.3c0-0.2,0-0.4-0.3-0.4h-0.1
		v-0.1h0.3c0.1,0,0.2,0,0.3,0.1c0.1,0.1,0.1,0.2,0.1,0.4V24.1z M60.1,22.6c-0.1-0.1-0.2-0.1-0.3-0.1c-0.2,0-0.3,0.1-0.4,0.2
		c-0.1,0.1-0.1,0.3-0.1,0.5c0,0.2,0,0.4,0.1,0.5c0.1,0.1,0.2,0.2,0.3,0.2c0.1,0,0.2,0,0.2-0.1c0.1,0,0.1-0.1,0.1-0.2V22.6z"/>
	<path class="st13" d="M61.8,24.1h-0.3v-1.3c0-0.2,0-0.4-0.3-0.4h-0.1v-0.1h0.3c0.1,0,0.2,0,0.3,0.1c0.1,0.1,0.1,0.2,0.1,0.4V24.1z
		 M61.8,22c0,0.1-0.1,0.2-0.2,0.2c-0.1,0-0.2-0.1-0.2-0.2c0-0.1,0.1-0.2,0.2-0.2C61.7,21.7,61.8,21.8,61.8,22"/>
	<path class="st13" d="M63.2,24.1h-0.3v-1.3c0-0.2,0-0.4-0.3-0.4h-0.1v-0.1h0.3c0.2,0,0.3,0.1,0.3,0.1h0c0.1-0.1,0.3-0.2,0.5-0.2
		c0.2,0,0.3,0,0.4,0.1c0.1,0.1,0.2,0.3,0.2,0.5v1.1h-0.3V23c0-0.2-0.1-0.3-0.1-0.4c-0.1-0.1-0.2-0.1-0.3-0.1c-0.2,0-0.3,0.1-0.4,0.2
		V24.1z"/>
	<path class="st13" d="M65.2,22.9c0-0.2,0.1-0.4,0.2-0.4c0.1-0.1,0.3-0.1,0.5-0.1h0.7v0.1l-0.2,0v0c0.1,0.1,0.3,0.2,0.3,0.4
		c0,0.2-0.1,0.3-0.2,0.4c-0.1,0.1-0.3,0.1-0.5,0.1c-0.3,0-0.4,0-0.4,0.1c0,0.1,0.1,0.1,0.4,0.1c0.2,0,0.4,0,0.6,0.1
		c0.1,0.1,0.2,0.2,0.2,0.4s-0.1,0.3-0.2,0.4c-0.1,0.1-0.3,0.1-0.6,0.1c-0.2,0-0.4,0-0.6-0.1c-0.1-0.1-0.2-0.2-0.2-0.4
		c0-0.2,0.2-0.4,0.4-0.5c-0.1,0-0.1-0.1-0.1-0.2c0-0.1,0.1-0.2,0.1-0.2C65.3,23.3,65.2,23.1,65.2,22.9 M65.7,23.8
		c-0.2,0.1-0.3,0.2-0.3,0.4c0,0.3,0.2,0.4,0.5,0.4c0.3,0,0.5-0.1,0.5-0.4c0-0.2-0.2-0.4-0.4-0.4L65.7,23.8z M66.2,22.9
		c0-0.3-0.2-0.4-0.4-0.4c-0.1,0-0.2,0-0.3,0.1c-0.1,0.1-0.1,0.2-0.1,0.3c0,0.2,0,0.3,0.1,0.3c0.1,0.1,0.2,0.1,0.3,0.1
		c0.1,0,0.2,0,0.3-0.1C66.2,23.1,66.2,23,66.2,22.9"/>
	<path class="st13" d="M67.4,24.6c0.2-0.1,0.3-0.3,0.3-0.5l-0.1,0c-0.1,0-0.2-0.1-0.2-0.2c0-0.1,0.1-0.2,0.2-0.2
		c0.1,0,0.2,0.1,0.2,0.3C67.9,24.3,67.7,24.5,67.4,24.6L67.4,24.6z"/>
	<path class="st13" d="M70.4,21.6h0.3v2c0,0.2,0,0.4,0.3,0.4h0.1v0.1h-0.3c-0.1,0-0.2,0-0.3-0.1c-0.1-0.1-0.1-0.2-0.1-0.4V21.6z"/>
	<path class="st13" d="M72.2,24.1h-0.3v-1.3c0-0.2,0-0.4-0.3-0.4h-0.1v-0.1h0.3c0.2,0,0.3,0.1,0.3,0.1h0c0.1-0.1,0.3-0.2,0.5-0.2
		c0.2,0,0.3,0,0.4,0.1c0.1,0.1,0.2,0.3,0.2,0.5v1.1H73V23c0-0.2-0.1-0.3-0.1-0.4c-0.1-0.1-0.2-0.1-0.3-0.1c-0.2,0-0.3,0.1-0.4,0.2
		V24.1z"/>
	<path class="st13" d="M74.4,22.5h-0.3v-0.1h0.3V22l0.2-0.2h0.2v0.6h0.4v0.1h-0.4v1.1c0,0.2,0.1,0.3,0.3,0.3c0.1,0,0.2,0,0.3-0.1
		l0,0.1c0,0-0.1,0.1-0.2,0.1c-0.1,0-0.2,0.1-0.3,0.1c-0.3,0-0.4-0.1-0.4-0.5V22.5z"/>
	<path class="st13" d="M77.4,23.3h-1.1c0,0.2,0,0.4,0.1,0.5c0.1,0.1,0.2,0.2,0.4,0.2c0.2,0,0.4-0.1,0.5-0.3l0.1,0.1
		c-0.2,0.3-0.4,0.4-0.7,0.4c-0.3,0-0.4-0.1-0.6-0.3c-0.1-0.2-0.2-0.4-0.2-0.6c0-0.3,0.1-0.5,0.2-0.6c0.1-0.2,0.3-0.3,0.5-0.3
		c0.5,0,0.7,0.3,0.7,0.8L77.4,23.3z M77,23.1c0-0.4-0.1-0.7-0.4-0.7c-0.1,0-0.2,0.1-0.3,0.2c-0.1,0.1-0.1,0.3-0.1,0.5H77z"/>
	<path class="st13" d="M78.6,24.1h-0.3v-2c0-0.2,0-0.4-0.3-0.4h-0.1v-0.1h0.3c0.1,0,0.2,0,0.3,0.1c0.1,0.1,0.1,0.2,0.1,0.4V24.1z"/>
	<path class="st13" d="M79.9,24.1h-0.3v-2c0-0.2,0-0.4-0.3-0.4h-0.1v-0.1h0.3c0.1,0,0.2,0,0.3,0.1c0.1,0.1,0.1,0.2,0.1,0.4V24.1z"/>
	<path class="st13" d="M81.3,24.1H81v-1.3c0-0.2,0-0.4-0.3-0.4h-0.1v-0.1H81c0.1,0,0.2,0,0.3,0.1c0.1,0.1,0.1,0.2,0.1,0.4V24.1z
		 M81.3,22c0,0.1-0.1,0.2-0.2,0.2c-0.1,0-0.2-0.1-0.2-0.2c0-0.1,0.1-0.2,0.2-0.2C81.2,21.7,81.3,21.8,81.3,22"/>
	<path class="st13" d="M82.2,22.9c0-0.2,0.1-0.4,0.2-0.4c0.1-0.1,0.3-0.1,0.5-0.1h0.7v0.1l-0.2,0v0c0.1,0.1,0.3,0.2,0.3,0.4
		c0,0.2-0.1,0.3-0.2,0.4c-0.1,0.1-0.3,0.1-0.5,0.1c-0.3,0-0.4,0-0.4,0.1c0,0.1,0.1,0.1,0.4,0.1c0.2,0,0.4,0,0.6,0.1
		c0.1,0.1,0.2,0.2,0.2,0.4s-0.1,0.3-0.2,0.4c-0.1,0.1-0.3,0.1-0.6,0.1c-0.2,0-0.4,0-0.6-0.1c-0.1-0.1-0.2-0.2-0.2-0.4
		c0-0.2,0.2-0.4,0.4-0.5c-0.1,0-0.1-0.1-0.1-0.2c0-0.1,0.1-0.2,0.1-0.2C82.4,23.3,82.2,23.1,82.2,22.9 M82.8,23.8
		c-0.2,0.1-0.3,0.2-0.3,0.4c0,0.3,0.2,0.4,0.5,0.4c0.3,0,0.5-0.1,0.5-0.4c0-0.2-0.2-0.4-0.4-0.4L82.8,23.8z M83.3,22.9
		c0-0.3-0.2-0.4-0.4-0.4c-0.1,0-0.2,0-0.3,0.1c-0.1,0.1-0.1,0.2-0.1,0.3c0,0.2,0,0.3,0.1,0.3c0.1,0.1,0.2,0.1,0.3,0.1
		c0.1,0,0.2,0,0.3-0.1C83.2,23.1,83.3,23,83.3,22.9"/>
	<path class="st13" d="M85.9,23.3h-1.1c0,0.2,0,0.4,0.1,0.5c0.1,0.1,0.2,0.2,0.4,0.2c0.2,0,0.4-0.1,0.5-0.3l0.1,0.1
		c-0.2,0.3-0.4,0.4-0.7,0.4c-0.3,0-0.4-0.1-0.6-0.3c-0.1-0.2-0.2-0.4-0.2-0.6c0-0.3,0.1-0.5,0.2-0.6c0.1-0.2,0.3-0.3,0.5-0.3
		c0.5,0,0.7,0.3,0.7,0.8L85.9,23.3z M85.6,23.1c0-0.4-0.1-0.7-0.4-0.7c-0.1,0-0.2,0.1-0.3,0.2c-0.1,0.1-0.1,0.3-0.1,0.5H85.6z"/>
	<path class="st13" d="M87.2,24.1h-0.3v-1.3c0-0.2,0-0.4-0.3-0.4h-0.1v-0.1h0.3c0.2,0,0.3,0.1,0.3,0.1h0c0.1-0.1,0.3-0.2,0.5-0.2
		c0.2,0,0.3,0,0.4,0.1c0.1,0.1,0.2,0.3,0.2,0.5v1.1h-0.3V23c0-0.2-0.1-0.3-0.1-0.4c-0.1-0.1-0.2-0.1-0.3-0.1c-0.2,0-0.3,0.1-0.4,0.2
		V24.1z"/>
	<path class="st13" d="M89.3,22.5H89v-0.1h0.3V22l0.2-0.2h0.2v0.6h0.4v0.1h-0.4v1.1c0,0.2,0.1,0.3,0.3,0.3c0.1,0,0.2,0,0.3-0.1
		l0,0.1c0,0-0.1,0.1-0.2,0.1c-0.1,0-0.2,0.1-0.3,0.1c-0.3,0-0.4-0.1-0.4-0.5V22.5z"/>
	<path class="st13" d="M94,23.5c0,0.2-0.1,0.4-0.2,0.5c-0.1,0.1-0.3,0.2-0.6,0.2c-0.2,0-0.4,0-0.6-0.1c-0.2-0.1-0.3-0.2-0.3-0.3
		v-0.4h0.1c0.1,0.5,0.3,0.7,0.7,0.7c0.1,0,0.2,0,0.3-0.1c0.1-0.1,0.1-0.2,0.1-0.3c0-0.2-0.1-0.3-0.4-0.5l-0.5-0.3
		c-0.3-0.2-0.4-0.4-0.4-0.6c0-0.2,0.1-0.3,0.2-0.5c0.1-0.1,0.3-0.2,0.5-0.2c0.2,0,0.4,0,0.5,0.1c0.2,0.1,0.3,0.2,0.3,0.3v0.4h-0.1
		c-0.1-0.5-0.3-0.7-0.7-0.7c-0.1,0-0.2,0-0.3,0.1c-0.1,0.1-0.1,0.2-0.1,0.3c0,0.1,0,0.2,0.1,0.3c0.1,0.1,0.2,0.1,0.3,0.2l0.5,0.3
		c0.2,0.1,0.3,0.2,0.3,0.3C94,23.2,94,23.3,94,23.5"/>
	<path class="st13" d="M94.8,23.2c0-0.3,0.1-0.5,0.2-0.6c0.1-0.2,0.3-0.3,0.6-0.3c0.3,0,0.5,0.1,0.6,0.3c0.1,0.2,0.2,0.4,0.2,0.6
		c0,0.2-0.1,0.5-0.2,0.6c-0.1,0.2-0.3,0.3-0.6,0.3c-0.3,0-0.5-0.1-0.6-0.3C94.9,23.7,94.8,23.5,94.8,23.2 M96.1,23.2
		c0-0.2,0-0.4-0.1-0.5c-0.1-0.1-0.2-0.2-0.3-0.2c-0.1,0-0.3,0.1-0.3,0.2c-0.1,0.1-0.1,0.3-0.1,0.5c0,0.2,0,0.4,0.1,0.5
		c0.1,0.1,0.2,0.2,0.3,0.2c0.1,0,0.3-0.1,0.3-0.2C96,23.6,96.1,23.4,96.1,23.2"/>
	<path class="st13" d="M97.6,24.1h-0.3v-2c0-0.2,0-0.4-0.3-0.4H97v-0.1h0.3c0.1,0,0.2,0,0.3,0.1c0.1,0.1,0.1,0.2,0.1,0.4V24.1z"/>
	<path class="st13" d="M99.8,22.3h0.3v1.7h-0.2l-0.1-0.1h0c-0.1,0.1-0.3,0.2-0.5,0.2c-0.2,0-0.3,0-0.4-0.1c-0.1-0.1-0.2-0.3-0.2-0.5
		v-0.7c0-0.2,0-0.4-0.3-0.4h0v-0.1h0.3c0.1,0,0.2,0,0.3,0.1c0.1,0.1,0.1,0.2,0.1,0.4v0.7c0,0.2,0.1,0.3,0.1,0.4
		c0.1,0.1,0.2,0.1,0.3,0.1c0.1,0,0.3-0.1,0.4-0.2V22.3z"/>
	<path class="st13" d="M101.1,22.5h-0.3v-0.1h0.3V22l0.2-0.2h0.2v0.6h0.4v0.1h-0.4v1.1c0,0.2,0.1,0.3,0.3,0.3c0.1,0,0.2,0,0.3-0.1
		l0,0.1c0,0-0.1,0.1-0.2,0.1c-0.1,0-0.2,0.1-0.3,0.1c-0.3,0-0.4-0.1-0.4-0.5V22.5z"/>
	<path class="st13" d="M103.1,24.1h-0.3v-1.3c0-0.2,0-0.4-0.3-0.4h-0.1v-0.1h0.3c0.1,0,0.2,0,0.3,0.1c0.1,0.1,0.1,0.2,0.1,0.4V24.1z
		 M103.1,22c0,0.1-0.1,0.2-0.2,0.2c-0.1,0-0.2-0.1-0.2-0.2c0-0.1,0.1-0.2,0.2-0.2C103,21.7,103.1,21.8,103.1,22"/>
	<path class="st13" d="M104,23.2c0-0.3,0.1-0.5,0.2-0.6c0.1-0.2,0.3-0.3,0.6-0.3c0.3,0,0.5,0.1,0.6,0.3c0.1,0.2,0.2,0.4,0.2,0.6
		c0,0.2-0.1,0.5-0.2,0.6c-0.1,0.2-0.3,0.3-0.6,0.3c-0.3,0-0.5-0.1-0.6-0.3C104.1,23.7,104,23.5,104,23.2 M105.3,23.2
		c0-0.2,0-0.4-0.1-0.5c-0.1-0.1-0.2-0.2-0.3-0.2c-0.1,0-0.3,0.1-0.3,0.2c-0.1,0.1-0.1,0.3-0.1,0.5c0,0.2,0,0.4,0.1,0.5
		c0.1,0.1,0.2,0.2,0.3,0.2c0.1,0,0.3-0.1,0.3-0.2C105.2,23.6,105.3,23.4,105.3,23.2"/>
	<path class="st13" d="M106.9,24.1h-0.3v-1.3c0-0.2,0-0.4-0.3-0.4h-0.1v-0.1h0.3c0.2,0,0.3,0.1,0.3,0.1h0c0.1-0.1,0.3-0.2,0.5-0.2
		c0.2,0,0.3,0,0.4,0.1c0.1,0.1,0.2,0.3,0.2,0.5v1.1h-0.3V23c0-0.2-0.1-0.3-0.1-0.4c-0.1-0.1-0.2-0.1-0.3-0.1c-0.2,0-0.3,0.1-0.4,0.2
		V24.1z"/>
</g>
<path class="st13" d="M108.4,23.4c0,0.2-0.1,0.3-0.2,0.3c-0.1,0.1-0.3,0.1-0.4,0.1c-0.3,0-0.5-0.1-0.5-0.1c-0.1-0.1-0.1-0.2-0.1-0.4
	h0.1c0,0.2,0.2,0.4,0.5,0.4c0.3,0,0.4-0.1,0.4-0.3c0-0.1-0.1-0.2-0.3-0.3l-0.2-0.1c-0.3-0.1-0.4-0.3-0.4-0.5c0-0.2,0.1-0.3,0.2-0.3
	c0.1-0.1,0.3-0.1,0.4-0.1c0.3,0,0.4,0.1,0.5,0.1c0.1,0.1,0.1,0.2,0.1,0.4h-0.1c0-0.2-0.2-0.4-0.5-0.4c-0.2,0-0.4,0.1-0.4,0.3
	c0,0.1,0.1,0.2,0.3,0.3l0.2,0.1C108.2,23,108.4,23.2,108.4,23.4"/>
</svg>
