<svg width="640" height="520" viewBox="0 0 640 520" fill="none" xmlns="http://www.w3.org/2000/svg">
<path d="M634.312 0H5.68756C2.54641 0 0 3.9779 0 8.88489V511.115C0 516.022 2.54641 520 5.68756 520H634.312C637.454 520 640 516.022 640 511.115V8.88489C640 3.9779 637.454 0 634.312 0Z" fill="#D9D9D9"/>
<path d="M205.006 282.597C203.216 282.568 201.426 282.227 199.636 281.574C197.847 280.92 196.213 279.82 194.736 278.271C193.259 276.709 192.072 274.599 191.178 271.943C190.283 269.273 189.835 265.92 189.835 261.886C189.835 258.023 190.197 254.599 190.922 251.616C191.646 248.619 192.697 246.098 194.075 244.053C195.453 241.993 197.115 240.43 199.061 239.365C201.021 238.3 203.23 237.767 205.688 237.767C208.131 237.767 210.304 238.257 212.207 239.237C214.125 240.203 215.688 241.553 216.895 243.286C218.102 245.018 218.884 247.014 219.239 249.273H214.04C213.557 247.312 212.619 245.686 211.227 244.393C209.835 243.101 207.989 242.455 205.688 242.455C202.307 242.455 199.643 243.925 197.697 246.865C195.766 249.805 194.793 253.932 194.778 259.244H195.119C195.915 258.037 196.859 257.007 197.953 256.155C199.061 255.288 200.283 254.621 201.618 254.152C202.953 253.683 204.366 253.449 205.858 253.449C208.358 253.449 210.645 254.074 212.719 255.324C214.793 256.56 216.455 258.271 217.705 260.459C218.955 262.632 219.58 265.125 219.58 267.938C219.58 270.636 218.976 273.108 217.768 275.352C216.561 277.582 214.864 279.358 212.676 280.679C210.503 281.986 207.946 282.625 205.006 282.597ZM205.006 277.909C206.795 277.909 208.401 277.462 209.821 276.567C211.256 275.672 212.385 274.472 213.209 272.966C214.047 271.46 214.466 269.784 214.466 267.938C214.466 266.134 214.061 264.493 213.251 263.016C212.456 261.524 211.355 260.338 209.949 259.457C208.557 258.577 206.966 258.136 205.176 258.136C203.827 258.136 202.57 258.406 201.405 258.946C200.24 259.472 199.217 260.196 198.337 261.119C197.47 262.043 196.788 263.101 196.291 264.294C195.794 265.473 195.545 266.716 195.545 268.023C195.545 269.756 195.95 271.375 196.76 272.881C197.584 274.386 198.706 275.601 200.126 276.524C201.561 277.447 203.188 277.909 205.006 277.909ZM242.703 282.597C239.89 282.597 237.383 282.114 235.181 281.148C232.994 280.182 231.254 278.839 229.961 277.121C228.683 275.388 227.987 273.378 227.873 271.091H233.243C233.356 272.497 233.839 273.712 234.691 274.734C235.544 275.743 236.659 276.524 238.037 277.078C239.414 277.632 240.941 277.909 242.618 277.909C244.493 277.909 246.154 277.582 247.603 276.929C249.052 276.276 250.189 275.366 251.012 274.202C251.836 273.037 252.248 271.688 252.248 270.153C252.248 268.548 251.85 267.135 251.055 265.913C250.26 264.678 249.095 263.712 247.561 263.016C246.027 262.32 244.152 261.972 241.936 261.972H238.441V257.284H241.936C243.669 257.284 245.189 256.972 246.495 256.347C247.816 255.722 248.846 254.841 249.585 253.705C250.338 252.568 250.714 251.233 250.714 249.699C250.714 248.222 250.387 246.936 249.734 245.842C249.081 244.749 248.157 243.896 246.964 243.286C245.785 242.675 244.393 242.369 242.788 242.369C241.282 242.369 239.862 242.646 238.527 243.2C237.206 243.74 236.126 244.528 235.288 245.565C234.45 246.588 233.995 247.824 233.924 249.273H228.811C228.896 246.986 229.585 244.983 230.877 243.264C232.17 241.531 233.86 240.182 235.949 239.216C238.051 238.25 240.359 237.767 242.873 237.767C245.572 237.767 247.887 238.314 249.819 239.408C251.751 240.487 253.235 241.915 254.272 243.69C255.309 245.466 255.828 247.384 255.828 249.443C255.828 251.901 255.181 253.996 253.889 255.729C252.61 257.462 250.87 258.662 248.669 259.33V259.67C251.424 260.125 253.576 261.297 255.125 263.186C256.673 265.061 257.447 267.384 257.447 270.153C257.447 272.526 256.801 274.656 255.508 276.545C254.23 278.42 252.483 279.898 250.267 280.977C248.051 282.057 245.529 282.597 242.703 282.597ZM280.395 282.597C277.184 282.597 274.45 281.723 272.191 279.976C269.933 278.214 268.207 275.665 267.014 272.327C265.821 268.974 265.224 264.926 265.224 260.182C265.224 255.466 265.821 251.439 267.014 248.101C268.221 244.749 269.954 242.192 272.213 240.43C274.485 238.655 277.213 237.767 280.395 237.767C283.576 237.767 286.297 238.655 288.555 240.43C290.828 242.192 292.561 244.749 293.754 248.101C294.961 251.439 295.565 255.466 295.565 260.182C295.565 264.926 294.968 268.974 293.775 272.327C292.582 275.665 290.856 278.214 288.598 279.976C286.339 281.723 283.605 282.597 280.395 282.597ZM280.395 277.909C283.576 277.909 286.048 276.375 287.809 273.307C289.571 270.239 290.451 265.864 290.451 260.182C290.451 256.403 290.047 253.186 289.237 250.53C288.441 247.874 287.291 245.849 285.785 244.457C284.294 243.065 282.497 242.369 280.395 242.369C277.241 242.369 274.777 243.925 273.001 247.036C271.225 250.132 270.338 254.514 270.338 260.182C270.338 263.96 270.735 267.17 271.531 269.812C272.326 272.455 273.47 274.464 274.961 275.842C276.467 277.22 278.278 277.909 280.395 277.909ZM329.315 274.159L305.281 250.125L308.52 246.886L332.554 270.92L329.315 274.159ZM308.52 274.159L305.281 270.92L329.315 246.886L332.554 250.125L308.52 274.159ZM356.849 282.597C354.349 282.597 352.097 282.099 350.094 281.105C348.092 280.111 346.487 278.747 345.279 277.014C344.072 275.281 343.411 273.307 343.298 271.091H348.411C348.61 273.065 349.505 274.699 351.096 275.991C352.701 277.27 354.619 277.909 356.849 277.909C358.638 277.909 360.229 277.49 361.621 276.652C363.028 275.814 364.129 274.663 364.924 273.2C365.734 271.723 366.138 270.054 366.138 268.193C366.138 266.29 365.719 264.592 364.881 263.101C364.058 261.595 362.921 260.409 361.472 259.543C360.023 258.676 358.369 258.236 356.508 258.222C355.173 258.207 353.802 258.413 352.396 258.839C350.989 259.251 349.832 259.784 348.923 260.438L343.979 259.841L346.621 238.364H369.292V243.051H351.053L349.519 255.92H349.775C350.67 255.21 351.792 254.621 353.141 254.152C354.491 253.683 355.897 253.449 357.36 253.449C360.031 253.449 362.41 254.088 364.498 255.366C366.6 256.631 368.248 258.364 369.441 260.565C370.648 262.767 371.252 265.281 371.252 268.108C371.252 270.892 370.627 273.378 369.377 275.565C368.141 277.739 366.437 279.457 364.263 280.722C362.09 281.972 359.619 282.597 356.849 282.597ZM379.716 282V278.165L394.12 262.398C395.81 260.551 397.202 258.946 398.296 257.582C399.39 256.205 400.199 254.912 400.725 253.705C401.265 252.483 401.534 251.205 401.534 249.869C401.534 248.335 401.165 247.007 400.426 245.885C399.702 244.763 398.708 243.896 397.444 243.286C396.179 242.675 394.759 242.369 393.182 242.369C391.506 242.369 390.043 242.717 388.793 243.413C387.557 244.095 386.598 245.054 385.917 246.29C385.249 247.526 384.915 248.974 384.915 250.636H379.887C379.887 248.08 380.476 245.835 381.655 243.903C382.834 241.972 384.439 240.466 386.471 239.386C388.516 238.307 390.81 237.767 393.353 237.767C395.909 237.767 398.175 238.307 400.15 239.386C402.124 240.466 403.672 241.922 404.794 243.754C405.917 245.587 406.478 247.625 406.478 249.869C406.478 251.474 406.186 253.044 405.604 254.578C405.036 256.098 404.042 257.795 402.621 259.67C401.215 261.531 399.262 263.804 396.762 266.489L386.961 276.972V277.312H407.245V282H379.716ZM430.277 282.597C427.067 282.597 424.333 281.723 422.074 279.976C419.816 278.214 418.09 275.665 416.897 272.327C415.703 268.974 415.107 264.926 415.107 260.182C415.107 255.466 415.703 251.439 416.897 248.101C418.104 244.749 419.837 242.192 422.096 240.43C424.368 238.655 427.096 237.767 430.277 237.767C433.459 237.767 436.179 238.655 438.438 240.43C440.711 242.192 442.444 244.749 443.637 248.101C444.844 251.439 445.448 255.466 445.448 260.182C445.448 264.926 444.851 268.974 443.658 272.327C442.465 275.665 440.739 278.214 438.48 279.976C436.222 281.723 433.488 282.597 430.277 282.597ZM430.277 277.909C433.459 277.909 435.931 276.375 437.692 273.307C439.453 270.239 440.334 265.864 440.334 260.182C440.334 256.403 439.929 253.186 439.12 250.53C438.324 247.874 437.174 245.849 435.668 244.457C434.176 243.065 432.38 242.369 430.277 242.369C427.124 242.369 424.659 243.925 422.884 247.036C421.108 250.132 420.221 254.514 420.221 260.182C420.221 263.96 420.618 267.17 421.414 269.812C422.209 272.455 423.353 274.464 424.844 275.842C426.35 277.22 428.161 277.909 430.277 277.909Z" fill="black"/>
</svg>
