<svg width="525" height="270" viewBox="0 0 525 270" fill="none" xmlns="http://www.w3.org/2000/svg">
<path d="M520.334 0H4.66558C2.08885 0 0 2.06545 0 4.61331V265.387C0 267.935 2.08885 270 4.66558 270H520.334C522.911 270 525 267.935 525 265.387V4.61331C525 2.06545 522.911 0 520.334 0Z" fill="#D9D9D9"/>
<path d="M152.153 159.597C149.653 159.597 147.402 159.099 145.399 158.105C143.396 157.111 141.791 155.747 140.584 154.014C139.376 152.281 138.716 150.307 138.602 148.091H143.716C143.915 150.065 144.81 151.699 146.401 152.991C148.006 154.27 149.923 154.909 152.153 154.909C153.943 154.909 155.534 154.49 156.926 153.652C158.332 152.814 159.433 151.663 160.229 150.2C161.038 148.723 161.443 147.054 161.443 145.193C161.443 143.29 161.024 141.592 160.186 140.101C159.362 138.595 158.226 137.409 156.777 136.543C155.328 135.676 153.673 135.236 151.812 135.222C150.477 135.207 149.107 135.413 147.7 135.839C146.294 136.251 145.136 136.784 144.227 137.438L139.284 136.841L141.926 115.364H164.597V120.051H146.358L144.824 132.92H145.08C145.974 132.21 147.097 131.621 148.446 131.152C149.795 130.683 151.202 130.449 152.665 130.449C155.335 130.449 157.714 131.088 159.803 132.366C161.905 133.631 163.553 135.364 164.746 137.565C165.953 139.767 166.557 142.281 166.557 145.108C166.557 147.892 165.932 150.378 164.682 152.565C163.446 154.739 161.741 156.457 159.568 157.722C157.395 158.972 154.923 159.597 152.153 159.597ZM175.021 159V155.165L189.424 139.398C191.115 137.551 192.507 135.946 193.6 134.582C194.694 133.205 195.504 131.912 196.029 130.705C196.569 129.483 196.839 128.205 196.839 126.869C196.839 125.335 196.47 124.007 195.731 122.885C195.007 121.763 194.012 120.896 192.748 120.286C191.484 119.675 190.064 119.369 188.487 119.369C186.811 119.369 185.348 119.717 184.098 120.413C182.862 121.095 181.903 122.054 181.221 123.29C180.554 124.526 180.22 125.974 180.22 127.636H175.191C175.191 125.08 175.781 122.835 176.96 120.903C178.139 118.972 179.744 117.466 181.775 116.386C183.821 115.307 186.115 114.767 188.657 114.767C191.214 114.767 193.48 115.307 195.454 116.386C197.429 117.466 198.977 118.922 200.099 120.754C201.221 122.587 201.782 124.625 201.782 126.869C201.782 128.474 201.491 130.044 200.909 131.578C200.341 133.098 199.346 134.795 197.926 136.67C196.52 138.531 194.566 140.804 192.066 143.489L182.265 153.972V154.312H202.549V159H175.021ZM224.985 159.597C222.485 159.597 220.234 159.099 218.231 158.105C216.228 157.111 214.623 155.747 213.416 154.014C212.208 152.281 211.548 150.307 211.434 148.091H216.548C216.747 150.065 217.642 151.699 219.233 152.991C220.838 154.27 222.755 154.909 224.985 154.909C226.775 154.909 228.366 154.49 229.758 153.652C231.164 152.814 232.265 151.663 233.061 150.2C233.87 148.723 234.275 147.054 234.275 145.193C234.275 143.29 233.856 141.592 233.018 140.101C232.194 138.595 231.058 137.409 229.609 136.543C228.16 135.676 226.505 135.236 224.645 135.222C223.309 135.207 221.939 135.413 220.532 135.839C219.126 136.251 217.968 136.784 217.059 137.438L212.116 136.841L214.758 115.364H237.429V120.051H219.19L217.656 132.92H217.912C218.806 132.21 219.929 131.621 221.278 131.152C222.627 130.683 224.034 130.449 225.497 130.449C228.167 130.449 230.547 131.088 232.635 132.366C234.737 133.631 236.385 135.364 237.578 137.565C238.785 139.767 239.389 142.281 239.389 145.108C239.389 147.892 238.764 150.378 237.514 152.565C236.278 154.739 234.574 156.457 232.4 157.722C230.227 158.972 227.755 159.597 224.985 159.597ZM273.506 151.159L249.472 127.125L252.711 123.886L276.745 147.92L273.506 151.159ZM252.711 151.159L249.472 147.92L273.506 123.886L276.745 127.125L252.711 151.159ZM287.404 159V155.165L301.807 139.398C303.498 137.551 304.89 135.946 305.983 134.582C307.077 133.205 307.887 131.912 308.412 130.705C308.952 129.483 309.222 128.205 309.222 126.869C309.222 125.335 308.853 124.007 308.114 122.885C307.39 121.763 306.395 120.896 305.131 120.286C303.867 119.675 302.446 119.369 300.87 119.369C299.194 119.369 297.73 119.717 296.48 120.413C295.245 121.095 294.286 122.054 293.604 123.29C292.936 124.526 292.603 125.974 292.603 127.636H287.574C287.574 125.08 288.164 122.835 289.343 120.903C290.522 118.972 292.127 117.466 294.158 116.386C296.203 115.307 298.498 114.767 301.04 114.767C303.597 114.767 305.863 115.307 307.837 116.386C309.811 117.466 311.36 118.922 312.482 120.754C313.604 122.587 314.165 124.625 314.165 126.869C314.165 128.474 313.874 130.044 313.292 131.578C312.723 133.098 311.729 134.795 310.309 136.67C308.902 138.531 306.949 140.804 304.449 143.489L294.648 153.972V154.312H314.932V159H287.404ZM325.096 159L344.613 120.392V120.051H322.113V115.364H350.067V120.307L330.635 159H325.096ZM371.305 159.597C368.094 159.597 365.36 158.723 363.102 156.976C360.843 155.214 359.117 152.665 357.924 149.327C356.731 145.974 356.134 141.926 356.134 137.182C356.134 132.466 356.731 128.439 357.924 125.101C359.131 121.749 360.864 119.192 363.123 117.43C365.396 115.655 368.123 114.767 371.305 114.767C374.487 114.767 377.207 115.655 379.465 117.43C381.738 119.192 383.471 121.749 384.664 125.101C385.871 128.439 386.475 132.466 386.475 137.182C386.475 141.926 385.879 145.974 384.685 149.327C383.492 152.665 381.766 155.214 379.508 156.976C377.249 158.723 374.515 159.597 371.305 159.597ZM371.305 154.909C374.487 154.909 376.958 153.375 378.719 150.307C380.481 147.239 381.362 142.864 381.362 137.182C381.362 133.403 380.957 130.186 380.147 127.53C379.352 124.874 378.201 122.849 376.695 121.457C375.204 120.065 373.407 119.369 371.305 119.369C368.151 119.369 365.687 120.925 363.911 124.036C362.136 127.132 361.248 131.514 361.248 137.182C361.248 140.96 361.646 144.17 362.441 146.812C363.237 149.455 364.38 151.464 365.871 152.842C367.377 154.22 369.188 154.909 371.305 154.909Z" fill="black"/>
</svg>
