<svg width="1920" height="1000" viewBox="0 0 1920 1000" fill="none" xmlns="http://www.w3.org/2000/svg">
<rect width="1920" height="1000" fill="#D9D9D9"/>
<path d="M679.716 456.727V544H669.148V467.807H668.636L647.33 481.955V471.216L669.148 456.727H679.716ZM732.599 455.534C736.179 455.562 739.759 456.244 743.338 457.58C746.918 458.915 750.185 461.131 753.139 464.227C756.094 467.295 758.466 471.486 760.256 476.798C762.045 482.111 762.94 488.773 762.94 496.784C762.94 504.54 762.202 511.429 760.724 517.452C759.276 523.446 757.173 528.503 754.418 532.622C751.69 536.741 748.366 539.866 744.446 541.997C740.554 544.128 736.151 545.193 731.236 545.193C726.349 545.193 721.989 544.227 718.153 542.295C714.347 540.335 711.222 537.622 708.778 534.156C706.364 530.662 704.815 526.614 704.134 522.011H714.531C715.469 526.017 717.33 529.327 720.114 531.94C722.926 534.526 726.634 535.818 731.236 535.818C737.969 535.818 743.281 532.878 747.173 526.997C751.094 521.116 753.054 512.807 753.054 502.068H752.372C750.781 504.455 748.892 506.514 746.705 508.247C744.517 509.98 742.088 511.315 739.418 512.253C736.747 513.19 733.906 513.659 730.895 513.659C725.895 513.659 721.307 512.423 717.131 509.952C712.983 507.452 709.659 504.028 707.159 499.682C704.688 495.307 703.452 490.307 703.452 484.682C703.452 479.341 704.645 474.455 707.031 470.023C709.446 465.562 712.827 462.011 717.173 459.369C721.548 456.727 726.69 455.449 732.599 455.534ZM732.599 464.909C729.02 464.909 725.795 465.804 722.926 467.594C720.085 469.355 717.827 471.741 716.151 474.753C714.503 477.736 713.679 481.045 713.679 484.682C713.679 488.318 714.474 491.628 716.065 494.611C717.685 497.565 719.886 499.923 722.67 501.685C725.483 503.418 728.679 504.284 732.259 504.284C734.957 504.284 737.472 503.759 739.801 502.707C742.131 501.628 744.162 500.165 745.895 498.318C747.656 496.443 749.034 494.327 750.028 491.969C751.023 489.582 751.52 487.097 751.52 484.511C751.52 481.102 750.696 477.906 749.048 474.923C747.429 471.94 745.185 469.526 742.315 467.679C739.474 465.832 736.236 464.909 732.599 464.909ZM779.698 544V536.33L808.505 504.795C811.886 501.102 814.67 497.892 816.857 495.165C819.045 492.409 820.664 489.824 821.715 487.409C822.795 484.966 823.335 482.409 823.335 479.739C823.335 476.67 822.596 474.014 821.119 471.77C819.67 469.526 817.681 467.793 815.153 466.571C812.624 465.349 809.783 464.739 806.63 464.739C803.278 464.739 800.352 465.435 797.852 466.827C795.38 468.19 793.462 470.108 792.099 472.58C790.763 475.051 790.096 477.949 790.096 481.273H780.039C780.039 476.159 781.218 471.67 783.576 467.807C785.934 463.943 789.144 460.932 793.207 458.773C797.298 456.614 801.886 455.534 806.971 455.534C812.085 455.534 816.616 456.614 820.565 458.773C824.513 460.932 827.61 463.844 829.854 467.509C832.099 471.173 833.221 475.25 833.221 479.739C833.221 482.949 832.638 486.088 831.474 489.156C830.337 492.196 828.349 495.591 825.508 499.341C822.695 503.062 818.789 507.608 813.789 512.977L794.187 533.943V534.625H834.755V544H779.698ZM880.82 545.193C874.4 545.193 868.931 543.446 864.414 539.952C859.897 536.429 856.445 531.33 854.059 524.653C851.673 517.949 850.479 509.852 850.479 500.364C850.479 490.932 851.673 482.878 854.059 476.202C856.474 469.497 859.94 464.384 864.457 460.861C869.002 457.31 874.457 455.534 880.82 455.534C887.184 455.534 892.624 457.31 897.141 460.861C901.687 464.384 905.153 469.497 907.539 476.202C909.954 482.878 911.161 490.932 911.161 500.364C911.161 509.852 909.968 517.949 907.582 524.653C905.195 531.33 901.744 536.429 897.227 539.952C892.71 543.446 887.241 545.193 880.82 545.193ZM880.82 535.818C887.184 535.818 892.127 532.75 895.65 526.614C899.173 520.477 900.934 511.727 900.934 500.364C900.934 492.807 900.124 486.372 898.505 481.06C896.914 475.747 894.613 471.699 891.602 468.915C888.619 466.131 885.025 464.739 880.82 464.739C874.513 464.739 869.585 467.849 866.033 474.071C862.482 480.264 860.707 489.028 860.707 500.364C860.707 507.92 861.502 514.341 863.093 519.625C864.684 524.909 866.971 528.929 869.954 531.685C872.965 534.44 876.587 535.818 880.82 535.818ZM978.661 528.318L930.593 480.25L937.07 473.773L985.138 521.841L978.661 528.318ZM937.07 528.318L930.593 521.841L978.661 473.773L985.138 480.25L937.07 528.318ZM1037.14 456.727V544H1026.57V467.807H1026.06L1004.75 481.955V471.216L1026.57 456.727H1037.14ZM1090.7 545.193C1084.28 545.193 1078.81 543.446 1074.3 539.952C1069.78 536.429 1066.33 531.33 1063.94 524.653C1061.56 517.949 1060.36 509.852 1060.36 500.364C1060.36 490.932 1061.56 482.878 1063.94 476.202C1066.36 469.497 1069.82 464.384 1074.34 460.861C1078.88 457.31 1084.34 455.534 1090.7 455.534C1097.07 455.534 1102.51 457.31 1107.02 460.861C1111.57 464.384 1115.04 469.497 1117.42 476.202C1119.84 482.878 1121.04 490.932 1121.04 500.364C1121.04 509.852 1119.85 517.949 1117.46 524.653C1115.08 531.33 1111.63 536.429 1107.11 539.952C1102.59 543.446 1097.12 545.193 1090.7 545.193ZM1090.7 535.818C1097.07 535.818 1102.01 532.75 1105.53 526.614C1109.06 520.477 1110.82 511.727 1110.82 500.364C1110.82 492.807 1110.01 486.372 1108.39 481.06C1106.8 475.747 1104.5 471.699 1101.48 468.915C1098.5 466.131 1094.91 464.739 1090.7 464.739C1084.4 464.739 1079.47 467.849 1075.92 474.071C1072.37 480.264 1070.59 489.028 1070.59 500.364C1070.59 507.92 1071.38 514.341 1072.98 519.625C1074.57 524.909 1076.85 528.929 1079.84 531.685C1082.85 534.44 1086.47 535.818 1090.7 535.818ZM1165.7 545.193C1159.28 545.193 1153.81 543.446 1149.3 539.952C1144.78 536.429 1141.33 531.33 1138.94 524.653C1136.56 517.949 1135.36 509.852 1135.36 500.364C1135.36 490.932 1136.56 482.878 1138.94 476.202C1141.36 469.497 1144.82 464.384 1149.34 460.861C1153.88 457.31 1159.34 455.534 1165.7 455.534C1172.07 455.534 1177.51 457.31 1182.02 460.861C1186.57 464.384 1190.04 469.497 1192.42 476.202C1194.84 482.878 1196.04 490.932 1196.04 500.364C1196.04 509.852 1194.85 517.949 1192.46 524.653C1190.08 531.33 1186.63 536.429 1182.11 539.952C1177.59 543.446 1172.12 545.193 1165.7 545.193ZM1165.7 535.818C1172.07 535.818 1177.01 532.75 1180.53 526.614C1184.06 520.477 1185.82 511.727 1185.82 500.364C1185.82 492.807 1185.01 486.372 1183.39 481.06C1181.8 475.747 1179.5 471.699 1176.48 468.915C1173.5 466.131 1169.91 464.739 1165.7 464.739C1159.4 464.739 1154.47 467.849 1150.92 474.071C1147.37 480.264 1145.59 489.028 1145.59 500.364C1145.59 507.92 1146.38 514.341 1147.98 519.625C1149.57 524.909 1151.85 528.929 1154.84 531.685C1157.85 534.44 1161.47 535.818 1165.7 535.818ZM1240.7 545.193C1234.28 545.193 1228.81 543.446 1224.3 539.952C1219.78 536.429 1216.33 531.33 1213.94 524.653C1211.56 517.949 1210.36 509.852 1210.36 500.364C1210.36 490.932 1211.56 482.878 1213.94 476.202C1216.36 469.497 1219.82 464.384 1224.34 460.861C1228.88 457.31 1234.34 455.534 1240.7 455.534C1247.07 455.534 1252.51 457.31 1257.02 460.861C1261.57 464.384 1265.04 469.497 1267.42 476.202C1269.84 482.878 1271.04 490.932 1271.04 500.364C1271.04 509.852 1269.85 517.949 1267.46 524.653C1265.08 531.33 1261.63 536.429 1257.11 539.952C1252.59 543.446 1247.12 545.193 1240.7 545.193ZM1240.7 535.818C1247.07 535.818 1252.01 532.75 1255.53 526.614C1259.06 520.477 1260.82 511.727 1260.82 500.364C1260.82 492.807 1260.01 486.372 1258.39 481.06C1256.8 475.747 1254.5 471.699 1251.48 468.915C1248.5 466.131 1244.91 464.739 1240.7 464.739C1234.4 464.739 1229.47 467.849 1225.92 474.071C1222.37 480.264 1220.59 489.028 1220.59 500.364C1220.59 507.92 1221.38 514.341 1222.98 519.625C1224.57 524.909 1226.85 528.929 1229.84 531.685C1232.85 534.44 1236.47 535.818 1240.7 535.818Z" fill="black"/>
</svg>
