<svg width="1070" height="557" viewBox="0 0 1070 557" fill="none" xmlns="http://www.w3.org/2000/svg">
<g clip-path="url(#clip0_5_167)">
<path d="M1060.5 1H10.5C5.25329 1 1 5.25329 1 10.5V547.5C1 552.747 5.25329 557 10.5 557H1060.5C1065.75 557 1070 552.747 1070 547.5V10.5C1070 5.25329 1065.75 1 1060.5 1Z" fill="#D9D9D9" stroke="#D9D9D9"/>
<path d="M335.442 244.909V314H327.075V253.68H326.67L309.803 264.881V256.379L327.075 244.909H335.442ZM377.848 314.945C372.765 314.945 368.435 313.561 364.859 310.795C361.283 308.006 358.551 303.969 356.662 298.684C354.772 293.376 353.828 286.966 353.828 279.455C353.828 271.988 354.772 265.612 356.662 260.326C358.573 255.019 361.317 250.97 364.893 248.181C368.492 245.37 372.81 243.964 377.848 243.964C382.886 243.964 387.192 245.37 390.768 248.181C394.367 250.97 397.111 255.019 399 260.326C400.912 265.612 401.868 271.988 401.868 279.455C401.868 286.966 400.923 293.376 399.034 298.684C397.145 303.969 394.412 308.006 390.836 310.795C387.26 313.561 382.931 314.945 377.848 314.945ZM377.848 307.523C382.886 307.523 386.799 305.094 389.588 300.236C392.377 295.378 393.771 288.451 393.771 279.455C393.771 273.472 393.13 268.378 391.848 264.172C390.589 259.966 388.767 256.762 386.383 254.558C384.021 252.353 381.176 251.251 377.848 251.251C372.855 251.251 368.953 253.714 366.141 258.64C363.33 263.542 361.924 270.481 361.924 279.455C361.924 285.437 362.554 290.52 363.814 294.703C365.073 298.886 366.884 302.069 369.245 304.25C371.629 306.432 374.497 307.523 377.848 307.523ZM437.627 314.945C434.794 314.9 431.96 314.36 429.126 313.325C426.292 312.291 423.706 310.548 421.367 308.096C419.028 305.622 417.15 302.282 415.733 298.077C414.316 293.848 413.608 288.541 413.608 282.153C413.608 276.036 414.181 270.616 415.328 265.893C416.475 261.147 418.139 257.155 420.321 253.917C422.503 250.655 425.134 248.181 428.215 246.495C431.319 244.808 434.816 243.964 438.707 243.964C442.575 243.964 446.016 244.74 449.03 246.292C452.066 247.822 454.54 249.958 456.452 252.702C458.364 255.446 459.601 258.606 460.163 262.182H451.931C451.167 259.078 449.682 256.503 447.478 254.456C445.274 252.41 442.35 251.386 438.707 251.386C433.354 251.386 429.137 253.714 426.056 258.37C422.997 263.025 421.457 269.559 421.434 277.97H421.974C423.234 276.058 424.729 274.428 426.461 273.078C428.215 271.707 430.149 270.65 432.263 269.907C434.378 269.165 436.615 268.794 438.977 268.794C442.935 268.794 446.556 269.784 449.84 271.763C453.123 273.719 455.755 276.43 457.734 279.893C459.713 283.334 460.703 287.281 460.703 291.734C460.703 296.008 459.747 299.921 457.835 303.474C455.924 307.005 453.236 309.817 449.772 311.908C446.331 313.978 442.283 314.99 437.627 314.945ZM437.627 307.523C440.461 307.523 443.003 306.814 445.252 305.397C447.523 303.98 449.311 302.08 450.616 299.696C451.943 297.312 452.606 294.658 452.606 291.734C452.606 288.878 451.965 286.28 450.683 283.941C449.424 281.58 447.681 279.702 445.454 278.308C443.25 276.913 440.731 276.216 437.897 276.216C435.761 276.216 433.77 276.643 431.926 277.498C430.082 278.33 428.463 279.477 427.068 280.939C425.696 282.401 424.617 284.076 423.83 285.966C423.042 287.832 422.649 289.8 422.649 291.869C422.649 294.613 423.29 297.177 424.572 299.561C425.876 301.945 427.653 303.868 429.902 305.33C432.174 306.792 434.749 307.523 437.627 307.523ZM495.965 243.964C498.799 243.987 501.633 244.527 504.467 245.584C507.3 246.641 509.887 248.395 512.226 250.847C514.565 253.276 516.443 256.593 517.86 260.799C519.277 265.004 519.985 270.278 519.985 276.621C519.985 282.761 519.4 288.215 518.231 292.983C517.084 297.728 515.419 301.731 513.238 304.993C511.079 308.254 508.447 310.728 505.344 312.414C502.262 314.101 498.776 314.945 494.886 314.945C491.017 314.945 487.565 314.18 484.529 312.651C481.515 311.099 479.041 308.951 477.107 306.207C475.195 303.441 473.969 300.236 473.43 296.592H481.661C482.403 299.763 483.876 302.384 486.081 304.453C488.307 306.499 491.242 307.523 494.886 307.523C500.216 307.523 504.422 305.195 507.503 300.539C510.606 295.884 512.158 289.305 512.158 280.804H511.619C510.359 282.693 508.863 284.324 507.132 285.696C505.4 287.068 503.477 288.125 501.363 288.867C499.249 289.609 497 289.98 494.616 289.98C490.657 289.98 487.025 289.002 483.719 287.045C480.435 285.066 477.804 282.356 475.825 278.915C473.868 275.451 472.89 271.493 472.89 267.04C472.89 262.812 473.834 258.943 475.724 255.435C477.635 251.904 480.312 249.092 483.753 247.001C487.216 244.909 491.287 243.897 495.965 243.964ZM495.965 251.386C493.131 251.386 490.579 252.095 488.307 253.512C486.058 254.906 484.27 256.795 482.943 259.179C481.639 261.541 480.986 264.161 480.986 267.04C480.986 269.919 481.616 272.539 482.876 274.9C484.158 277.239 485.901 279.106 488.105 280.5C490.331 281.872 492.861 282.558 495.695 282.558C497.832 282.558 499.822 282.142 501.666 281.31C503.511 280.455 505.119 279.297 506.491 277.835C507.885 276.351 508.976 274.675 509.763 272.809C510.55 270.919 510.944 268.951 510.944 266.905C510.944 264.206 510.292 261.676 508.987 259.314C507.705 256.953 505.928 255.041 503.657 253.579C501.408 252.117 498.844 251.386 495.965 251.386ZM573.869 301.585L535.816 263.531L540.943 258.403L578.997 296.457L573.869 301.585ZM540.943 301.585L535.816 296.457L573.869 258.403L578.997 263.531L540.943 301.585ZM617.465 314.945C613.506 314.945 609.941 314.157 606.77 312.583C603.599 311.009 601.058 308.85 599.146 306.106C597.234 303.362 596.189 300.236 596.009 296.727H604.105C604.42 299.853 605.837 302.44 608.356 304.487C610.897 306.511 613.934 307.523 617.465 307.523C620.298 307.523 622.817 306.859 625.021 305.532C627.248 304.205 628.991 302.384 630.25 300.067C631.532 297.728 632.173 295.085 632.173 292.139C632.173 289.125 631.51 286.438 630.183 284.076C628.879 281.692 627.079 279.814 624.785 278.442C622.491 277.071 619.871 276.373 616.925 276.351C614.811 276.328 612.64 276.654 610.414 277.329C608.187 277.981 606.354 278.825 604.915 279.859L597.088 278.915L601.271 244.909H637.166V252.331H608.288L605.859 272.707H606.264C607.681 271.583 609.458 270.65 611.595 269.907C613.731 269.165 615.958 268.794 618.274 268.794C622.502 268.794 626.27 269.806 629.576 271.83C632.904 273.832 635.513 276.576 637.402 280.062C639.314 283.548 640.27 287.529 640.27 292.004C640.27 296.412 639.28 300.348 637.301 303.812C635.345 307.253 632.646 309.974 629.205 311.976C625.764 313.955 621.85 314.945 617.465 314.945ZM675.262 314.945C671.304 314.945 667.739 314.157 664.568 312.583C661.397 311.009 658.856 308.85 656.944 306.106C655.032 303.362 653.986 300.236 653.806 296.727H661.903C662.218 299.853 663.635 302.44 666.154 304.487C668.695 306.511 671.731 307.523 675.262 307.523C678.096 307.523 680.615 306.859 682.819 305.532C685.046 304.205 686.789 302.384 688.048 300.067C689.33 297.728 689.971 295.085 689.971 292.139C689.971 289.125 689.308 286.438 687.981 284.076C686.676 281.692 684.877 279.814 682.583 278.442C680.289 277.071 677.669 276.373 674.723 276.351C672.609 276.328 670.438 276.654 668.212 277.329C665.985 277.981 664.152 278.825 662.713 279.859L654.886 278.915L659.069 244.909H694.964V252.331H666.086L663.657 272.707H664.062C665.479 271.583 667.256 270.65 669.392 269.907C671.529 269.165 673.756 268.794 676.072 268.794C680.3 268.794 684.067 269.806 687.374 271.83C690.702 273.832 693.311 276.576 695.2 280.062C697.112 283.548 698.068 287.529 698.068 292.004C698.068 296.412 697.078 300.348 695.099 303.812C693.142 307.253 690.444 309.974 687.002 311.976C683.561 313.955 679.648 314.945 675.262 314.945ZM734.41 314.945C731.576 314.9 728.742 314.36 725.908 313.325C723.074 312.291 720.488 310.548 718.149 308.096C715.81 305.622 713.932 302.282 712.515 298.077C711.098 293.848 710.39 288.541 710.39 282.153C710.39 276.036 710.963 270.616 712.11 265.893C713.257 261.147 714.922 257.155 717.103 253.917C719.285 250.655 721.916 248.181 724.997 246.495C728.101 244.808 731.598 243.964 735.489 243.964C739.358 243.964 742.799 244.74 745.812 246.292C748.849 247.822 751.323 249.958 753.234 252.702C755.146 255.446 756.383 258.606 756.945 262.182H748.714C747.949 259.078 746.465 256.503 744.261 254.456C742.056 252.41 739.133 251.386 735.489 251.386C730.137 251.386 725.92 253.714 722.838 258.37C719.78 263.025 718.239 269.559 718.217 277.97H718.756C720.016 276.058 721.511 274.428 723.243 273.078C724.997 271.707 726.932 270.65 729.046 269.907C731.16 269.165 733.398 268.794 735.759 268.794C739.717 268.794 743.338 269.784 746.622 271.763C749.906 273.719 752.537 276.43 754.516 279.893C756.495 283.334 757.485 287.281 757.485 291.734C757.485 296.008 756.529 299.921 754.617 303.474C752.706 307.005 750.018 309.817 746.555 311.908C743.114 313.978 739.065 314.99 734.41 314.945ZM734.41 307.523C737.244 307.523 739.785 306.814 742.034 305.397C744.306 303.98 746.094 302.08 747.398 299.696C748.725 297.312 749.388 294.658 749.388 291.734C749.388 288.878 748.747 286.28 747.465 283.941C746.206 281.58 744.463 279.702 742.236 278.308C740.032 276.913 737.513 276.216 734.68 276.216C732.543 276.216 730.553 276.643 728.708 277.498C726.864 278.33 725.245 279.477 723.85 280.939C722.478 282.401 721.399 284.076 720.612 285.966C719.825 287.832 719.431 289.8 719.431 291.869C719.431 294.613 720.072 297.177 721.354 299.561C722.658 301.945 724.435 303.868 726.684 305.33C728.956 306.792 731.531 307.523 734.41 307.523Z" fill="black"/>
</g>
<defs>
<clipPath id="clip0_5_167">
<rect width="1070" height="557" fill="white"/>
</clipPath>
</defs>
</svg>
