<svg width="655" height="515" viewBox="0 0 655 515" fill="none" xmlns="http://www.w3.org/2000/svg">
<path d="M649.179 0H5.82086C2.60609 0 0 3.93965 0 8.79946V506.201C0 511.06 2.60609 515 5.82086 515H649.179C652.394 515 655 511.06 655 506.201V8.79946C655 3.93965 652.394 0 649.179 0Z" fill="#D9D9D9"/>
<path d="M203.173 283.696C201.085 283.663 198.997 283.265 196.909 282.503C194.821 281.741 192.915 280.456 191.192 278.65C189.468 276.827 188.085 274.366 187.04 271.267C185.996 268.152 185.474 264.241 185.474 259.534C185.474 255.027 185.897 251.033 186.742 247.553C187.587 244.056 188.814 241.114 190.421 238.728C192.029 236.325 193.968 234.502 196.238 233.259C198.525 232.016 201.102 231.395 203.969 231.395C206.819 231.395 209.355 231.967 211.575 233.11C213.813 234.237 215.635 235.811 217.044 237.833C218.453 239.855 219.364 242.183 219.778 244.818H213.713C213.15 242.531 212.056 240.634 210.432 239.126C208.808 237.618 206.653 236.864 203.969 236.864C200.025 236.864 196.917 238.579 194.647 242.009C192.393 245.44 191.258 250.254 191.241 256.452H191.639C192.567 255.043 193.669 253.842 194.945 252.847C196.238 251.836 197.663 251.058 199.221 250.511C200.779 249.964 202.428 249.69 204.168 249.69C207.084 249.69 209.752 250.42 212.172 251.878C214.591 253.32 216.53 255.317 217.989 257.869C219.447 260.404 220.176 263.312 220.176 266.594C220.176 269.742 219.472 272.626 218.063 275.244C216.655 277.846 214.674 279.918 212.122 281.459C209.587 282.983 206.604 283.729 203.173 283.696ZM203.173 278.227C205.261 278.227 207.134 277.705 208.791 276.661C210.465 275.617 211.782 274.217 212.744 272.46C213.721 270.704 214.21 268.748 214.21 266.594C214.21 264.489 213.738 262.575 212.793 260.852C211.865 259.112 210.581 257.728 208.94 256.7C207.316 255.673 205.46 255.159 203.372 255.159C201.798 255.159 200.331 255.474 198.972 256.104C197.613 256.717 196.42 257.562 195.393 258.639C194.382 259.716 193.586 260.951 193.006 262.343C192.426 263.719 192.136 265.169 192.136 266.693C192.136 268.715 192.609 270.604 193.553 272.361C194.514 274.117 195.824 275.534 197.481 276.612C199.155 277.689 201.052 278.227 203.173 278.227ZM245.861 283.696C242.944 283.696 240.317 283.116 237.981 281.956C235.644 280.796 233.771 279.205 232.363 277.183C230.954 275.161 230.184 272.858 230.051 270.273H236.017C236.249 272.576 237.293 274.482 239.149 275.99C241.022 277.482 243.259 278.227 245.861 278.227C247.949 278.227 249.805 277.738 251.429 276.761C253.069 275.783 254.354 274.441 255.282 272.734C256.226 271.01 256.699 269.063 256.699 266.892C256.699 264.671 256.21 262.691 255.232 260.951C254.271 259.194 252.945 257.811 251.255 256.8C249.564 255.789 247.634 255.275 245.463 255.259C243.905 255.242 242.306 255.482 240.665 255.979C239.025 256.46 237.674 257.081 236.613 257.844L230.846 257.148L233.929 232.091H260.378V237.56H239.099L237.309 252.574H237.608C238.652 251.745 239.961 251.058 241.535 250.511C243.11 249.964 244.75 249.69 246.457 249.69C249.573 249.69 252.349 250.436 254.785 251.928C257.237 253.402 259.16 255.424 260.552 257.993C261.96 260.562 262.665 263.495 262.665 266.793C262.665 270.041 261.935 272.941 260.477 275.493C259.035 278.028 257.047 280.034 254.511 281.509C251.976 282.967 249.092 283.696 245.861 283.696ZM288.449 283.696C285.532 283.696 282.905 283.116 280.569 281.956C278.232 280.796 276.359 279.205 274.951 277.183C273.542 275.161 272.771 272.858 272.639 270.273H278.605C278.837 272.576 279.881 274.482 281.737 275.99C283.609 277.482 285.847 278.227 288.449 278.227C290.537 278.227 292.393 277.738 294.017 276.761C295.657 275.783 296.942 274.441 297.87 272.734C298.814 271.01 299.287 269.063 299.287 266.892C299.287 264.671 298.798 262.691 297.82 260.951C296.859 259.194 295.533 257.811 293.843 256.8C292.152 255.789 290.222 255.275 288.051 255.259C286.493 255.242 284.894 255.482 283.253 255.979C281.613 256.46 280.262 257.081 279.201 257.844L273.434 257.148L276.517 232.091H302.966V237.56H281.687L279.897 252.574H280.196C281.24 251.745 282.549 251.058 284.123 250.511C285.698 249.964 287.338 249.69 289.045 249.69C292.161 249.69 294.936 250.436 297.373 251.928C299.825 253.402 301.748 255.424 303.14 257.993C304.548 260.562 305.252 263.495 305.252 266.793C305.252 270.041 304.523 272.941 303.065 275.493C301.623 278.028 299.635 280.034 297.099 281.509C294.564 282.967 291.68 283.696 288.449 283.696ZM345.056 273.852L317.017 245.812L320.795 242.034L348.835 270.074L345.056 273.852ZM320.795 273.852L317.017 270.074L345.056 242.034L348.835 245.812L320.795 273.852ZM377.179 283.696C374.262 283.696 371.636 283.116 369.299 281.956C366.962 280.796 365.09 279.205 363.681 277.183C362.272 275.161 361.502 272.858 361.369 270.273H367.335C367.567 272.576 368.611 274.482 370.467 275.99C372.34 277.482 374.577 278.227 377.179 278.227C379.267 278.227 381.123 277.738 382.747 276.761C384.388 275.783 385.672 274.441 386.6 272.734C387.545 271.01 388.017 269.063 388.017 266.892C388.017 264.671 387.528 262.691 386.55 260.951C385.589 259.194 384.263 257.811 382.573 256.8C380.883 255.789 378.952 255.275 376.781 255.259C375.223 255.242 373.624 255.482 371.984 255.979C370.343 256.46 368.992 257.081 367.932 257.844L362.165 257.148L365.247 232.091H391.696V237.56H370.418L368.628 252.574H368.926C369.97 251.745 371.279 251.058 372.854 250.511C374.428 249.964 376.069 249.69 377.776 249.69C380.891 249.69 383.667 250.436 386.103 251.928C388.556 253.402 390.478 255.424 391.87 257.993C393.279 260.562 393.983 263.495 393.983 266.793C393.983 270.041 393.254 272.941 391.795 275.493C390.354 278.028 388.365 280.034 385.83 281.509C383.294 282.967 380.411 283.696 377.179 283.696ZM421.756 232.091V283H415.591V238.554H415.292L402.863 246.807V240.543L415.591 232.091H421.756ZM452.306 283.696C449.389 283.696 446.763 283.116 444.426 281.956C442.089 280.796 440.217 279.205 438.808 277.183C437.399 275.161 436.629 272.858 436.496 270.273H442.462C442.694 272.576 443.738 274.482 445.594 275.99C447.467 277.482 449.704 278.227 452.306 278.227C454.394 278.227 456.25 277.738 457.874 276.761C459.515 275.783 460.799 274.441 461.727 272.734C462.672 271.01 463.144 269.063 463.144 266.892C463.144 264.671 462.655 262.691 461.677 260.951C460.716 259.194 459.39 257.811 457.7 256.8C456.01 255.789 454.079 255.275 451.908 255.259C450.35 255.242 448.751 255.482 447.111 255.979C445.47 256.46 444.119 257.081 443.059 257.844L437.292 257.148L440.374 232.091H466.823V237.56H445.545L443.755 252.574H444.053C445.097 251.745 446.406 251.058 447.981 250.511C449.555 249.964 451.196 249.69 452.903 249.69C456.018 249.69 458.794 250.436 461.23 251.928C463.683 253.402 465.605 255.424 466.997 257.993C468.406 260.562 469.11 263.495 469.11 266.793C469.11 270.041 468.381 272.941 466.922 275.493C465.481 278.028 463.492 280.034 460.956 281.509C458.421 282.967 455.537 283.696 452.306 283.696Z" fill="black"/>
</svg>
